<?xml version="1.0" standalone="no"?><!-- Generator: Gravit.io --><svg xmlns="http://www.w3.org/2000/svg" xmlns:xlink="http://www.w3.org/1999/xlink" style="isolation:isolate" width="980" height="192"><path d=" M 47.441649484536086 21.513402061855665 Q 48.71092783505155 21.513402061855665 49.59237113402062 22.39484536082474 Q 50.47381443298969 23.27628865979381 50.47381443298969 24.54556701030928 Q 50.47381443298969 25.81484536082474 49.59237113402062 26.66103092783505 Q 48.71092783505155 27.507216494845363 47.441649484536086 27.507216494845363 L 33.12701030927835 27.507216494845363 L 33.12701030927835 67.91257731958764 Q 33.12701030927835 69.25237113402062 32.17505154639175 70.16907216494846 Q 31.22309278350515 71.0857731958763 29.88329896907216 71.0857731958763 Q 28.54350515463917 71.0857731958763 27.626804123711338 70.16907216494846 Q 26.710103092783502 69.25237113402062 26.710103092783502 67.91257731958764 L 26.710103092783502 27.507216494845363 L 12.32494845360824 27.507216494845363 Q 11.055670103092776 27.507216494845363 10.209484536082467 26.66103092783505 Q 9.363298969072158 25.81484536082474 9.363298969072158 24.54556701030928 Q 9.363298969072158 23.27628865979381 10.209484536082467 22.39484536082474 Q 11.055670103092776 21.513402061855665 12.32494845360824 21.513402061855665 L 47.441649484536086 21.513402061855665 Z  M 94.61649484536083 21.16082474226804 Q 95.95628865979383 21.16082474226804 96.90824742268042 22.112783505154635 Q 97.86020618556702 23.064742268041236 97.86020618556702 24.404536082474227 L 97.86020618556702 67.91257731958764 Q 97.86020618556702 69.25237113402062 96.90824742268042 70.16907216494846 Q 95.95628865979383 71.0857731958763 94.61649484536083 71.0857731958763 Q 93.27670103092784 71.0857731958763 92.36000000000001 70.16907216494846 Q 91.44329896907217 69.25237113402062 91.44329896907217 67.91257731958764 L 91.44329896907217 49.15546391752578 L 64.7179381443299 49.15546391752578 L 64.7179381443299 67.91257731958764 Q 64.7179381443299 69.25237113402062 63.7659793814433 70.16907216494846 Q 62.8140206185567 71.0857731958763 61.47422680412372 71.0857731958763 Q 60.13443298969073 71.0857731958763 59.21773195876289 70.16907216494846 Q 58.30103092783506 69.25237113402062 58.30103092783506 67.91257731958764 L 58.30103092783506 24.404536082474227 Q 58.30103092783506 23.064742268041236 59.21773195876289 22.112783505154635 Q 60.13443298969073 21.16082474226804 61.47422680412372 21.16082474226804 Q 62.8140206185567 21.16082474226804 63.7659793814433 22.112783505154635 Q 64.7179381443299 23.064742268041236 64.7179381443299 24.404536082474227 L 64.7179381443299 43.161649484536085 L 91.44329896907217 43.161649484536085 L 91.44329896907217 24.404536082474227 Q 91.44329896907217 23.064742268041236 92.36000000000001 22.112783505154635 Q 93.27670103092784 21.16082474226804 94.61649484536083 21.16082474226804 Z  M 133.32948453608248 20.80824742268041 Q 144.47092783505155 20.80824742268041 151.24041237113406 27.930309278350517 Q 157.79835051546397 34.91134020618557 158.08041237113406 46.123298969072174 Q 157.79835051546397 57.33525773195878 151.24041237113406 64.31628865979383 Q 144.47092783505155 71.43835051546394 133.32948453608248 71.43835051546394 Q 122.1175257731959 71.43835051546394 115.41855670103095 64.31628865979383 Q 108.719587628866 57.264742268041246 108.57855670103093 46.123298969072174 Q 108.719587628866 34.9818556701031 115.41855670103095 27.930309278350517 Q 122.1175257731959 20.80824742268041 133.32948453608248 20.80824742268041 Z  M 133.32948453608248 65.44453608247423 Q 141.93237113402066 65.44453608247423 146.86845360824745 59.8738144329897 Q 151.6635051546392 54.514639175257734 151.6635051546392 46.123298969072174 Q 151.6635051546392 37.731958762886606 146.86845360824745 32.372783505154636 Q 141.93237113402066 26.8020618556701 133.32948453608248 26.8020618556701 Q 124.72659793814435 26.8020618556701 119.79051546391754 32.372783505154636 Q 114.99546391752578 37.731958762886606 114.99546391752578 46.123298969072174 Q 114.99546391752578 54.514639175257734 119.79051546391754 59.8738144329897 Q 124.72659793814435 65.44453608247423 133.32948453608248 65.44453608247423 Z  M 218.5826804123712 21.16082474226804 Q 220.48659793814434 21.16082474226804 221.82639175257736 22.53587628865979 Q 223.16618556701033 23.910927835051545 223.16618556701033 25.81484536082474 L 223.16618556701033 67.91257731958764 Q 223.16618556701033 69.25237113402062 222.2494845360825 70.16907216494846 Q 221.33278350515468 71.0857731958763 219.99298969072166 71.0857731958763 Q 218.6531958762887 71.0857731958763 217.7012371134021 70.16907216494846 Q 216.74927835051548 69.25237113402062 216.74927835051548 67.91257731958764 L 216.74927835051548 27.85979381443299 L 200.46020618556702 68.12412371134022 Q 199.89608247422683 69.46391752577321 198.6973195876289 70.27484536082476 Q 197.49855670103094 71.0857731958763 195.94721649484538 71.0857731958763 Q 194.39587628865982 71.0857731958763 193.1971134020619 70.27484536082476 Q 191.99835051546395 69.46391752577321 191.43422680412374 68.12412371134022 L 175.14515463917527 27.85979381443299 L 175.14515463917527 67.91257731958764 Q 175.14515463917527 69.25237113402062 174.19319587628868 70.16907216494846 Q 173.2412371134021 71.0857731958763 171.9014432989691 71.0857731958763 Q 170.5616494845361 71.0857731958763 169.64494845360827 70.16907216494846 Q 168.72824742268043 69.25237113402062 168.72824742268043 67.91257731958764 L 168.72824742268043 25.81484536082474 Q 168.72824742268043 23.910927835051545 170.06804123711342 22.53587628865979 Q 171.4078350515464 21.16082474226804 173.31175257731962 21.16082474226804 L 175.63876288659796 21.16082474226804 Q 177.04907216494848 21.16082474226804 178.21257731958767 22.00701030927835 Q 179.37608247422682 22.85319587628866 179.94020618556704 24.122474226804126 L 195.94721649484538 64.03422680412372 L 211.95422680412372 24.122474226804126 Q 212.51835051546396 22.85319587628866 213.68185567010315 22.00701030927835 Q 214.84536082474233 21.16082474226804 216.2556701030928 21.16082474226804 L 218.5826804123712 21.16082474226804 Z  M 277.0400000000001 66.50226804123712 Q 277.3925773195877 67.34845360824742 277.3925773195877 68.30041237113403 Q 277.3925773195877 69.25237113402062 276.54639175257734 70.16907216494846 Q 275.700206185567 71.0857731958763 273.8668041237114 71.0857731958763 Q 272.0334020618557 71.0857731958763 271.1872164948454 69.11134020618559 L 266.6037113402062 58.110927835051555 L 242.62845360824747 58.110927835051555 L 238.04494845360827 69.11134020618559 Q 237.198762886598 71.0857731958763 235.36536082474228 71.0857731958763 Q 233.53195876288663 71.0857731958763 232.68577319587632 70.16907216494846 Q 231.83958762886598 69.25237113402062 231.83958762886598 68.30041237113403 Q 231.83958762886598 67.34845360824742 232.19216494845367 66.50226804123712 L 250.17360824742272 24.051958762886596 Q 251.44288659793818 21.16082474226804 254.2635051546392 21.16082474226804 L 254.96865979381448 21.16082474226804 Q 257.7892783505155 21.16082474226804 259.05855670103097 24.051958762886596 L 277.0400000000001 66.50226804123712 Z  M 264.1356701030928 52.258144329896915 L 254.61608247422686 29.34061855670103 L 245.09649484536087 52.258144329896915 L 264.1356701030928 52.258144329896915 Z  M 300.87422680412374 65.3740206185567 Q 313.21443298969075 65.3740206185567 313.21443298969075 57.264742268041246 Q 313.21443298969075 53.88000000000001 308.4898969072166 51.83505154639176 Q 306.4449484536083 50.988865979381444 303.73010309278357 50.318969072164954 Q 301.0152577319588 49.649072164948464 298.2298969072165 48.87340206185568 Q 295.4445360824743 48.09773195876289 292.72969072164955 47.11051546391753 Q 290.01484536082484 46.123298969072174 287.89938144329903 44.5719587628866 Q 283.24536082474236 41.04618556701031 283.24536082474236 35.263917525773195 Q 283.24536082474236 29.058556701030927 287.89938144329903 25.109690721649486 Q 292.9764948453609 20.80824742268041 301.5088659793815 20.80824742268041 Q 309.1950515463918 20.80824742268041 315.5414432989691 23.13525773195876 Q 317.51587628865985 23.840412371134022 317.51587628865985 25.95587628865979 Q 317.51587628865985 27.01360824742268 316.7754639175258 27.965567010309275 Q 316.0350515463918 28.917525773195877 315.15360824742277 28.917525773195877 Q 314.2721649484537 28.917525773195877 312.72082474226806 28.35340206185567 Q 308.13731958762895 26.731546391752577 302.2140206185568 26.731546391752577 Q 296.7843298969073 26.731546391752577 293.258556701031 28.776494845360826 Q 289.6622680412372 30.891958762886595 289.6622680412372 34.77030927835052 Q 289.6622680412372 38.78969072164949 294.3162886597939 40.834639175257735 Q 296.4317525773197 41.8218556701031 299.1113402061856 42.45649484536083 Q 301.7909278350516 43.09113402061856 304.61154639175265 43.796288659793824 Q 307.43216494845365 44.50144329896908 310.11175257731963 45.45340206185567 Q 312.7913402061856 46.405360824742274 314.9068041237114 47.95670103092784 Q 319.5608247422681 51.341443298969075 319.5608247422681 57.68783505154641 Q 319.5608247422681 63.75216494845362 314.69525773195886 67.56 Q 309.68865979381445 71.43835051546394 301.5088659793815 71.43835051546394 Q 292.55340206185576 71.43835051546394 284.72618556701036 68.05360824742269 Q 283.9505154639176 67.70103092783506 283.35113402061864 66.92536082474228 Q 282.7517525773196 66.1496907216495 282.7517525773196 65.05670103092784 Q 282.7517525773196 63.963711340206196 283.5274226804124 63.08226804123712 Q 284.30309278350524 62.20082474226805 285.3255670103093 62.20082474226805 Q 286.3480412371135 62.20082474226805 287.86412371134026 62.870721649484544 Q 289.3802061855671 63.54061855670105 292.83546391752583 64.45731958762887 Q 296.2907216494846 65.3740206185567 300.87422680412374 65.3740206185567 Z " fill-rule="evenodd" fill="rgb(0,189,173)" stroke-width="4" stroke="rgb(0,189,173)" stroke-linejoin="miter" stroke-linecap="square"/><path d=" M 363.2647422680411 21.16082474226804 Q 364.6045360824741 21.16082474226804 365.5564948453607 22.112783505154635 Q 366.50845360824735 23.064742268041236 366.50845360824735 24.404536082474227 L 366.50845360824735 54.514639175257734 Q 366.50845360824735 63.75216494845362 361.9249484536082 68.05360824742269 Q 358.2581443298968 71.43835051546394 351.98226804123703 71.43835051546394 Q 346.8346391752576 71.43835051546394 342.6037113402061 69.04082474226806 Q 341.0523711340205 68.19463917525775 341.0523711340205 66.74907216494847 Q 341.0523711340205 65.3035051546392 341.79278350515455 64.42206185567011 Q 342.5331958762886 63.54061855670105 343.48515463917516 63.54061855670105 Q 344.43711340206175 63.54061855670105 345.4243298969071 64.03422680412372 Q 348.1039175257731 65.3740206185567 350.60721649484526 65.3740206185567 Q 353.1105154639174 65.3740206185567 354.661855670103 64.98618556701032 Q 356.2131958762886 64.59835051546392 357.4119587628865 63.47010309278352 Q 360.0915463917525 60.93154639175258 360.0915463917525 54.937731958762896 L 360.0915463917525 24.404536082474227 Q 360.0915463917525 23.064742268041236 361.0082474226803 22.112783505154635 Q 361.9249484536082 21.16082474226804 363.2647422680411 21.16082474226804 Z  M 401.6956701030927 20.80824742268041 Q 412.83711340206173 20.80824742268041 419.60659793814426 27.930309278350517 Q 426.1645360824741 34.91134020618557 426.44659793814424 46.123298969072174 Q 426.1645360824741 57.33525773195878 419.60659793814426 64.31628865979383 Q 412.83711340206173 71.43835051546394 401.6956701030927 71.43835051546394 Q 390.4837113402061 71.43835051546394 383.78474226804116 64.31628865979383 Q 377.0857731958762 57.264742268041246 376.9447422680411 46.123298969072174 Q 377.0857731958762 34.9818556701031 383.78474226804116 27.930309278350517 Q 390.4837113402061 20.80824742268041 401.6956701030927 20.80824742268041 Z  M 401.6956701030927 65.44453608247423 Q 410.29855670103086 65.44453608247423 415.23463917525766 59.8738144329897 Q 420.0296907216494 54.514639175257734 420.0296907216494 46.123298969072174 Q 420.0296907216494 37.731958762886606 415.23463917525766 32.372783505154636 Q 410.29855670103086 26.8020618556701 401.6956701030927 26.8020618556701 Q 393.09278350515456 26.8020618556701 388.15670103092776 32.372783505154636 Q 383.361649484536 37.731958762886606 383.361649484536 46.123298969072174 Q 383.361649484536 54.514639175257734 388.15670103092776 59.8738144329897 Q 393.09278350515456 65.44453608247423 401.6956701030927 65.44453608247423 Z  M 451.97319587628857 65.3740206185567 Q 464.3134020618556 65.3740206185567 464.3134020618556 57.264742268041246 Q 464.3134020618556 53.88000000000001 459.58886597938135 51.83505154639176 Q 457.5439175257731 50.988865979381444 454.82907216494834 50.318969072164954 Q 452.11422680412363 49.649072164948464 449.32886597938136 48.87340206185568 Q 446.5435051546391 48.09773195876289 443.8286597938144 47.11051546391753 Q 441.1138144329896 46.123298969072174 438.9983505154638 44.5719587628866 Q 434.34432989690714 41.04618556701031 434.34432989690714 35.263917525773195 Q 434.34432989690714 29.058556701030927 438.9983505154638 25.109690721649486 Q 444.07546391752567 20.80824742268041 452.6078350515463 20.80824742268041 Q 460.2940206185566 20.80824742268041 466.64041237113395 23.13525773195876 Q 468.6148453608247 23.840412371134022 468.6148453608247 25.95587628865979 Q 468.6148453608247 27.01360824742268 467.87443298969066 27.965567010309275 Q 467.13402061855663 28.917525773195877 466.25257731958754 28.917525773195877 Q 465.37113402061846 28.917525773195877 463.8197938144329 28.35340206185567 Q 459.23628865979373 26.731546391752577 453.31298969072157 26.731546391752577 Q 447.8832989690721 26.731546391752577 444.3575257731958 28.776494845360826 Q 440.761237113402 30.891958762886595 440.761237113402 34.77030927835052 Q 440.761237113402 38.78969072164949 445.4152577319587 40.834639175257735 Q 447.53072164948446 41.8218556701031 450.21030927835045 42.45649484536083 Q 452.88989690721644 43.09113402061856 455.71051546391743 43.796288659793824 Q 458.5311340206185 44.50144329896908 461.21072164948447 45.45340206185567 Q 463.89030927835046 46.405360824742274 466.00577319587626 47.95670103092784 Q 470.65979381443293 51.341443298969075 470.65979381443293 57.68783505154641 Q 470.65979381443293 63.75216494845362 465.79422680412364 67.56 Q 460.7876288659793 71.43835051546394 452.6078350515463 71.43835051546394 Q 443.65237113402054 71.43835051546394 435.8251546391752 68.05360824742269 Q 435.0494845360824 67.70103092783506 434.4501030927834 66.92536082474228 Q 433.85072164948446 66.1496907216495 433.85072164948446 65.05670103092784 Q 433.85072164948446 63.963711340206196 434.6263917525772 63.08226804123712 Q 435.40206185567 62.20082474226805 436.42453608247416 62.20082474226805 Q 437.44701030927826 62.20082474226805 438.9630927835051 62.870721649484544 Q 440.47917525773187 63.54061855670105 443.93443298969066 64.45731958762887 Q 447.3896907216494 65.3740206185567 451.97319587628857 65.3740206185567 Z  M 511.9818556701031 64.73938144329898 Q 513.2511340206186 64.73938144329898 514.1325773195877 65.62082474226804 Q 515.0140206185566 66.50226804123712 515.0140206185566 67.7715463917526 Q 515.0140206185566 69.04082474226806 514.1325773195877 69.88701030927837 Q 513.2511340206186 70.73319587628868 511.9818556701031 70.73319587628868 L 483.7051546391752 70.73319587628868 Q 482.3653608247422 70.73319587628868 481.4486597938144 69.81649484536084 Q 480.5319587628865 68.899793814433 480.5319587628865 67.56 L 480.5319587628865 24.757113402061854 Q 480.5319587628865 23.417319587628864 481.4486597938144 22.465360824742266 Q 482.3653608247422 21.513402061855665 483.7051546391752 21.513402061855665 L 511.9818556701031 21.513402061855665 Q 513.2511340206186 21.513402061855665 514.1325773195877 22.39484536082474 Q 515.0140206185566 23.27628865979381 515.0140206185566 24.54556701030928 Q 515.0140206185566 25.81484536082474 514.1325773195877 26.66103092783505 Q 513.2511340206186 27.507216494845363 511.9818556701031 27.507216494845363 L 486.94886597938137 27.507216494845363 L 486.94886597938137 43.09113402061856 L 509.4432989690721 43.09113402061856 Q 510.7125773195876 43.09113402061856 511.59402061855667 43.97257731958763 Q 512.4754639175258 44.8540206185567 512.4754639175258 46.123298969072174 Q 512.4754639175258 47.39257731958763 511.59402061855667 48.23876288659795 Q 510.7125773195876 49.084948453608256 509.4432989690721 49.084948453608256 L 486.94886597938137 49.084948453608256 L 486.94886597938137 64.73938144329898 L 511.9818556701031 64.73938144329898 Z  M 544.7715463917525 21.513402061855665 Q 554.5731958762885 21.513402061855665 559.5092783505154 26.590515463917527 Q 563.599175257732 30.68041237113402 563.599175257732 37.16783505154639 Q 563.599175257732 43.65525773195876 559.5092783505154 47.74515463917526 Q 554.5731958762885 52.822268041237116 544.7715463917525 52.822268041237116 L 531.9377319587628 52.822268041237116 L 531.9377319587628 67.91257731958764 Q 531.9377319587628 69.25237113402062 530.9857731958763 70.16907216494846 Q 530.0338144329896 71.0857731958763 528.6940206185566 71.0857731958763 Q 527.3542268041236 71.0857731958763 526.4375257731958 70.16907216494846 Q 525.520824742268 69.25237113402062 525.520824742268 67.91257731958764 L 525.520824742268 24.757113402061854 Q 525.520824742268 23.417319587628864 526.4375257731958 22.465360824742266 Q 527.3542268041236 21.513402061855665 528.6940206185566 21.513402061855665 L 544.7715463917525 21.513402061855665 Z  M 544.1369072164948 46.757938144329906 Q 551.4 46.757938144329906 554.6437113402062 43.65525773195876 Q 557.1822680412371 41.25773195876289 557.1822680412371 37.16783505154639 Q 557.1822680412371 30.609896907216495 550.6243298969072 28.423917525773195 Q 548.0857731958763 27.577731958762886 544.1369072164948 27.577731958762886 L 531.9377319587628 27.577731958762886 L 531.9377319587628 46.757938144329906 L 544.1369072164948 46.757938144329906 Z  M 609.0111340206186 21.16082474226804 Q 610.3509278350516 21.16082474226804 611.3028865979381 22.112783505154635 Q 612.2548453608247 23.064742268041236 612.2548453608247 24.404536082474227 L 612.2548453608247 67.91257731958764 Q 612.2548453608247 69.25237113402062 611.3028865979381 70.16907216494846 Q 610.3509278350516 71.0857731958763 609.0111340206186 71.0857731958763 Q 607.6713402061855 71.0857731958763 606.7546391752577 70.16907216494846 Q 605.8379381443299 69.25237113402062 605.8379381443299 67.91257731958764 L 605.8379381443299 49.15546391752578 L 579.1125773195877 49.15546391752578 L 579.1125773195877 67.91257731958764 Q 579.1125773195877 69.25237113402062 578.160618556701 70.16907216494846 Q 577.2086597938144 71.0857731958763 575.8688659793813 71.0857731958763 Q 574.5290721649484 71.0857731958763 573.6123711340206 70.16907216494846 Q 572.6956701030928 69.25237113402062 572.6956701030928 67.91257731958764 L 572.6956701030928 24.404536082474227 Q 572.6956701030928 23.064742268041236 573.6123711340206 22.112783505154635 Q 574.5290721649484 21.16082474226804 575.8688659793813 21.16082474226804 Q 577.2086597938144 21.16082474226804 578.160618556701 22.112783505154635 Q 579.1125773195877 23.064742268041236 579.1125773195877 24.404536082474227 L 579.1125773195877 43.161649484536085 L 605.8379381443299 43.161649484536085 L 605.8379381443299 24.404536082474227 Q 605.8379381443299 23.064742268041236 606.7546391752577 22.112783505154635 Q 607.6713402061855 21.16082474226804 609.0111340206186 21.16082474226804 Z " fill-rule="evenodd" fill="rgb(0,189,173)" stroke-width="0" stroke="rgb(0,189,173)" stroke-opacity="0" stroke-linejoin="miter" stroke-linecap="square"/><path d=" M 12.01 149.6 L 12.01 85.69999999999999 L 33.7 85.69999999999999 Q 41.35 85.69999999999999 47.065 88.22 Q 52.78 90.74 56.605 95.06 Q 60.43 99.38 62.364999999999995 105.185 Q 64.3 110.99 64.3 117.56 Q 64.3 124.85 62.14 130.745 Q 59.98 136.64 55.975 140.825 Q 51.97 145.01 46.345 147.305 Q 40.72 149.6 33.7 149.6 L 12.01 149.6 Z  M 58 117.56 Q 58 111.8 56.379999999999995 106.985 Q 54.76 102.16999999999999 51.655 98.66 Q 48.55 95.15 44.05 93.215 Q 39.55 91.28 33.7 91.28 L 18.31 91.28 L 18.31 144.01999999999998 L 33.7 144.01999999999998 Q 39.64 144.01999999999998 44.184999999999995 141.995 Q 48.73 139.97 51.79 136.415 Q 54.85 132.86 56.425 128.045 Q 58 123.22999999999999 58 117.56 Z  M 95.35 150.5 Q 90.22 150.5 85.945 148.565 Q 81.66999999999999 146.63 78.52 143.255 Q 75.36999999999999 139.88 73.615 135.47 Q 71.86 131.06 71.86 126.02 Q 71.86 121.07 73.615 116.705 Q 75.36999999999999 112.34 78.475 109.05499999999999 Q 81.58 105.77 85.89999999999999 103.835 Q 90.22 101.9 95.25999999999999 101.9 Q 100.38999999999999 101.9 104.66499999999999 103.835 Q 108.94 105.77 112 109.1 Q 115.06 112.42999999999999 116.77 116.75 Q 118.47999999999999 121.07 118.47999999999999 125.92999999999999 Q 118.47999999999999 126.64999999999999 118.47999999999999 127.36999999999999 Q 118.47999999999999 128.09 118.38999999999999 128.36 L 78.25 128.36 Q 78.52 132.14 80.005 135.33499999999998 Q 81.49 138.53 83.83 140.87 Q 86.16999999999999 143.20999999999998 89.185 144.515 Q 92.19999999999999 145.82 95.61999999999999 145.82 Q 97.86999999999999 145.82 100.11999999999999 145.19 Q 102.36999999999999 144.56 104.25999999999999 143.48 Q 106.14999999999999 142.39999999999998 107.67999999999999 140.825 Q 109.21 139.25 110.02 137.36 L 115.32999999999998 138.8 Q 114.25 141.41 112.27 143.52499999999998 Q 110.28999999999999 145.64 107.67999999999999 147.21499999999997 Q 105.07 148.79 101.91999999999999 149.64499999999998 Q 98.77 150.5 95.35 150.5 Z  M 112.63 123.67999999999999 Q 112.35999999999999 119.89999999999999 110.875 116.79499999999999 Q 109.38999999999999 113.69 107.095 111.44 Q 104.79999999999998 109.19 101.785 107.92999999999999 Q 98.77 106.66999999999999 95.35 106.66999999999999 Q 91.92999999999999 106.66999999999999 88.86999999999999 107.92999999999999 Q 85.81 109.19 83.51499999999999 111.44 Q 81.22 113.69 79.82499999999999 116.84 Q 78.42999999999999 119.99 78.16 123.67999999999999 L 112.63 123.67999999999999 Z  M 141.97 149.6 L 122.88999999999999 102.71 L 129.19 102.71 L 145.29999999999998 143.93 L 161.5 102.71 L 167.44 102.71 L 148.35999999999999 149.6 L 141.97 149.6 Z  M 196.14999999999998 150.5 Q 191.01999999999998 150.5 186.74499999999998 148.565 Q 182.46999999999997 146.63 179.31999999999996 143.255 Q 176.17 139.88 174.41499999999996 135.47 Q 172.65999999999997 131.06 172.65999999999997 126.02 Q 172.65999999999997 121.07 174.41499999999996 116.705 Q 176.17 112.34 179.27499999999998 109.05499999999999 Q 182.37999999999997 105.77 186.7 103.835 Q 191.01999999999998 101.9 196.05999999999997 101.9 Q 201.18999999999997 101.9 205.46499999999997 103.835 Q 209.73999999999998 105.77 212.79999999999998 109.1 Q 215.85999999999999 112.42999999999999 217.57 116.75 Q 219.27999999999997 121.07 219.27999999999997 125.92999999999999 Q 219.27999999999997 126.64999999999999 219.27999999999997 127.36999999999999 Q 219.27999999999997 128.09 219.18999999999997 128.36 L 179.04999999999998 128.36 Q 179.31999999999996 132.14 180.80499999999998 135.33499999999998 Q 182.28999999999996 138.53 184.62999999999997 140.87 Q 186.96999999999997 143.20999999999998 189.98499999999999 144.515 Q 192.99999999999997 145.82 196.42 145.82 Q 198.67 145.82 200.92 145.19 Q 203.16999999999996 144.56 205.05999999999997 143.48 Q 206.95 142.39999999999998 208.47999999999996 140.825 Q 210.01 139.25 210.82 137.36 L 216.12999999999997 138.8 Q 215.04999999999998 141.41 213.07 143.52499999999998 Q 211.08999999999997 145.64 208.47999999999996 147.21499999999997 Q 205.86999999999998 148.79 202.71999999999997 149.64499999999998 Q 199.56999999999996 150.5 196.14999999999998 150.5 Z  M 213.42999999999998 123.67999999999999 Q 213.15999999999997 119.89999999999999 211.67499999999998 116.79499999999999 Q 210.18999999999997 113.69 207.89499999999998 111.44 Q 205.59999999999997 109.19 202.58499999999998 107.92999999999999 Q 199.56999999999996 106.66999999999999 196.14999999999998 106.66999999999999 Q 192.72999999999996 106.66999999999999 189.67 107.92999999999999 Q 186.60999999999999 109.19 184.31499999999997 111.44 Q 182.01999999999998 113.69 180.62499999999997 116.84 Q 179.23 119.99 178.95999999999998 123.67999999999999 L 213.42999999999998 123.67999999999999 Z  M 228.99999999999997 83.89999999999999 L 235.11999999999995 83.89999999999999 L 235.11999999999995 138.98 Q 235.11999999999995 141.58999999999997 236.55999999999997 143.075 Q 237.99999999999997 144.56 240.60999999999996 144.56 Q 241.59999999999997 144.56 242.94999999999996 144.29 Q 244.29999999999995 144.01999999999998 245.46999999999997 143.57 L 246.54999999999995 148.51999999999998 Q 244.83999999999997 149.24 242.36499999999995 149.69 Q 239.88999999999996 150.14 238.08999999999997 150.14 Q 233.85999999999996 150.14 231.42999999999995 147.755 Q 228.99999999999997 145.37 228.99999999999997 141.05 L 228.99999999999997 83.89999999999999 Z  M 273.18999999999994 150.5 Q 268.05999999999995 150.5 263.8299999999999 148.565 Q 259.5999999999999 146.63 256.49499999999995 143.3 Q 253.38999999999996 139.97 251.67999999999995 135.56 Q 249.96999999999994 131.14999999999998 249.96999999999994 126.28999999999999 Q 249.96999999999994 121.34 251.72499999999994 116.92999999999999 Q 253.47999999999996 112.52 256.5849999999999 109.19 Q 259.68999999999994 105.86 263.91999999999996 103.88 Q 268.15 101.9 273.18999999999994 101.9 Q 278.22999999999996 101.9 282.50499999999994 103.88 Q 286.78 105.86 289.88499999999993 109.19 Q 292.98999999999995 112.52 294.74499999999995 116.92999999999999 Q 296.49999999999994 121.34 296.49999999999994 126.28999999999999 Q 296.49999999999994 131.14999999999998 294.78999999999996 135.56 Q 293.0799999999999 139.97 289.97499999999997 143.3 Q 286.86999999999995 146.63 282.59499999999997 148.565 Q 278.31999999999994 150.5 273.18999999999994 150.5 Z  M 256.17999999999995 126.38 Q 256.17999999999995 130.34 257.53 133.71499999999997 Q 258.87999999999994 137.08999999999997 261.17499999999995 139.655 Q 263.46999999999997 142.22 266.57499999999993 143.66 Q 269.67999999999995 145.1 273.18999999999994 145.1 Q 276.69999999999993 145.1 279.80499999999995 143.615 Q 282.90999999999997 142.13 285.24999999999994 139.565 Q 287.5899999999999 137 288.93999999999994 133.57999999999998 Q 290.28999999999996 130.16 290.28999999999996 126.19999999999999 Q 290.28999999999996 122.33 288.93999999999994 118.865 Q 287.5899999999999 115.4 285.24999999999994 112.835 Q 282.90999999999997 110.27 279.80499999999995 108.785 Q 276.69999999999993 107.3 273.18999999999994 107.3 Q 269.67999999999995 107.3 266.61999999999995 108.785 Q 263.55999999999995 110.27 261.21999999999997 112.88 Q 258.87999999999994 115.49 257.53 118.955 Q 256.17999999999995 122.41999999999999 256.17999999999995 126.38 Z  M 330.69999999999993 150.5 Q 324.75999999999993 150.5 320.2149999999999 147.485 Q 315.66999999999996 144.47 312.87999999999994 139.88 L 312.87999999999994 168.76999999999998 L 306.75999999999993 168.76999999999998 L 306.75999999999993 102.71 L 312.24999999999994 102.71 L 312.24999999999994 111.8 Q 315.12999999999994 107.38999999999999 319.7199999999999 104.645 Q 324.30999999999995 101.9 329.7099999999999 101.9 Q 334.56999999999994 101.9 338.61999999999995 103.925 Q 342.66999999999996 105.94999999999999 345.63999999999993 109.32499999999999 Q 348.60999999999996 112.69999999999999 350.2749999999999 117.10999999999999 Q 351.93999999999994 121.52 351.93999999999994 126.19999999999999 Q 351.93999999999994 131.14999999999998 350.4099999999999 135.56 Q 348.87999999999994 139.97 346.04499999999996 143.3 Q 343.2099999999999 146.63 339.29499999999996 148.565 Q 335.37999999999994 150.5 330.69999999999993 150.5 Z  M 328.98999999999995 145.1 Q 332.7699999999999 145.1 335.87499999999994 143.48 Q 338.9799999999999 141.86 341.18499999999995 139.20499999999998 Q 343.38999999999993 136.55 344.55999999999995 133.175 Q 345.7299999999999 129.8 345.7299999999999 126.19999999999999 Q 345.7299999999999 122.41999999999999 344.37999999999994 119 Q 343.0299999999999 115.58 340.68999999999994 112.97 Q 338.3499999999999 110.35999999999999 335.1549999999999 108.83 Q 331.9599999999999 107.3 328.2699999999999 107.3 Q 325.92999999999995 107.3 323.36499999999995 108.245 Q 320.79999999999995 109.19 318.5949999999999 110.76499999999999 Q 316.38999999999993 112.34 314.81499999999994 114.455 Q 313.23999999999995 116.57 312.87999999999994 118.91 L 312.87999999999994 133.31 Q 313.9599999999999 135.82999999999998 315.62499999999994 137.99 Q 317.28999999999996 140.14999999999998 319.4049999999999 141.725 Q 321.5199999999999 143.3 323.94999999999993 144.2 Q 326.37999999999994 145.1 328.98999999999995 145.1 Z  M 382.53999999999996 150.5 Q 377.40999999999997 150.5 373.135 148.565 Q 368.85999999999996 146.63 365.71 143.255 Q 362.55999999999995 139.88 360.80499999999995 135.47 Q 359.04999999999995 131.06 359.04999999999995 126.02 Q 359.04999999999995 121.07 360.80499999999995 116.705 Q 362.55999999999995 112.34 365.66499999999996 109.05499999999999 Q 368.77 105.77 373.09 103.835 Q 377.40999999999997 101.9 382.45 101.9 Q 387.58 101.9 391.85499999999996 103.835 Q 396.12999999999994 105.77 399.18999999999994 109.1 Q 402.24999999999994 112.42999999999999 403.96 116.75 Q 405.66999999999996 121.07 405.66999999999996 125.92999999999999 Q 405.66999999999996 126.64999999999999 405.66999999999996 127.36999999999999 Q 405.66999999999996 128.09 405.58 128.36 L 365.43999999999994 128.36 Q 365.71 132.14 367.19499999999994 135.33499999999998 Q 368.67999999999995 138.53 371.02 140.87 Q 373.35999999999996 143.20999999999998 376.37499999999994 144.515 Q 379.39 145.82 382.80999999999995 145.82 Q 385.05999999999995 145.82 387.30999999999995 145.19 Q 389.55999999999995 144.56 391.44999999999993 143.48 Q 393.34 142.39999999999998 394.86999999999995 140.825 Q 396.4 139.25 397.21 137.36 L 402.52 138.8 Q 401.43999999999994 141.41 399.46 143.52499999999998 Q 397.47999999999996 145.64 394.86999999999995 147.21499999999997 Q 392.26 148.79 389.10999999999996 149.64499999999998 Q 385.96 150.5 382.53999999999996 150.5 Z  M 399.81999999999994 123.67999999999999 Q 399.54999999999995 119.89999999999999 398.06499999999994 116.79499999999999 Q 396.58 113.69 394.28499999999997 111.44 Q 391.98999999999995 109.19 388.97499999999997 107.92999999999999 Q 385.96 106.66999999999999 382.53999999999996 106.66999999999999 Q 379.11999999999995 106.66999999999999 376.05999999999995 107.92999999999999 Q 372.99999999999994 109.19 370.705 111.44 Q 368.40999999999997 113.69 367.015 116.84 Q 365.61999999999995 119.99 365.34999999999997 123.67999999999999 L 399.81999999999994 123.67999999999999 Z  M 438.5199999999999 108.10999999999999 Q 432.30999999999995 108.28999999999999 427.71999999999997 111.53 Q 423.12999999999994 114.77 421.23999999999995 120.44 L 421.23999999999995 149.6 L 415.11999999999995 149.6 L 415.11999999999995 102.71 L 420.87999999999994 102.71 L 420.87999999999994 113.96 Q 423.48999999999995 108.56 427.8999999999999 105.5 Q 432.30999999999995 102.44 437.34999999999997 102.44 Q 438.06999999999994 102.44 438.5199999999999 102.53 L 438.5199999999999 108.10999999999999 Z " fill-rule="evenodd" fill="rgb(255,255,255)" stroke-width="0" stroke="rgba(0,0,0,0)" stroke-linejoin="miter" stroke-linecap="square"/><path d=" M 498.40999999999997 85.69999999999999 L 498.40999999999997 149.6 L 492.2 149.6 L 492.2 119.72 L 454.31 119.72 L 454.31 149.6 L 448.01 149.6 L 448.01 85.69999999999999 L 454.31 85.69999999999999 L 454.31 114.13999999999999 L 492.2 114.13999999999999 L 492.2 85.69999999999999 L 498.40999999999997 85.69999999999999 Z  M 527.84 150.5 Q 520.19 150.5 516.455 145.415 Q 512.72 140.32999999999998 512.72 130.25 L 512.72 102.71 L 518.84 102.71 L 518.84 129.17 Q 518.84 145.1 529.73 145.1 Q 532.4300000000001 145.1 535.04 144.2 Q 537.65 143.3 539.855 141.58999999999997 Q 542.06 139.88 543.815 137.54 Q 545.5699999999999 135.2 546.65 132.23 L 546.65 102.71 L 552.77 102.71 L 552.77 141.68 Q 552.77 144.2 554.9300000000001 144.2 L 554.9300000000001 149.6 Q 553.85 149.78 553.175 149.78 Q 552.5 149.78 552.23 149.78 Q 550.0699999999999 149.69 548.72 148.25 Q 547.37 146.81 547.37 144.38 L 547.37 138.98 Q 544.31 144.47 539.045 147.485 Q 533.78 150.5 527.84 150.5 Z  M 589.5799999999999 150.5 Q 584 150.5 579.365 147.70999999999998 Q 574.73 144.92 572.12 140.51 L 572.12 149.6 L 566.63 149.6 L 566.63 83.89999999999999 L 572.75 83.89999999999999 L 572.75 112.52 Q 575.9 107.75 580.31 104.82499999999999 Q 584.72 101.9 590.5699999999999 101.9 Q 595.52 101.9 599.435 103.97 Q 603.35 106.03999999999999 606.095 109.505 Q 608.84 112.97 610.325 117.335 Q 611.81 121.69999999999999 611.81 126.28999999999999 Q 611.81 131.24 610.1 135.64999999999998 Q 608.39 140.06 605.42 143.345 Q 602.45 146.63 598.355 148.565 Q 594.26 150.5 589.5799999999999 150.5 Z  M 588.14 145.1 Q 592.01 145.1 595.2049999999999 143.52499999999998 Q 598.4 141.95 600.6949999999999 139.295 Q 602.99 136.64 604.295 133.265 Q 605.6 129.89 605.6 126.28999999999999 Q 605.6 122.6 604.385 119.17999999999999 Q 603.17 115.75999999999999 600.965 113.10499999999999 Q 598.76 110.44999999999999 595.655 108.875 Q 592.55 107.3 588.86 107.3 Q 586.0699999999999 107.3 583.64 108.245 Q 581.21 109.19 579.14 110.81 Q 577.0699999999999 112.42999999999999 575.45 114.54499999999999 Q 573.8299999999999 116.66 572.75 119 L 572.75 133.57999999999998 Q 573.11 136.01 574.685 138.125 Q 576.26 140.24 578.465 141.76999999999998 Q 580.67 143.3 583.235 144.2 Q 585.8 145.1 588.14 145.1 Z " fill-rule="evenodd" fill="rgb(153,153,153)" stroke-width="4" stroke="rgb(153,153,153)" stroke-linejoin="miter" stroke-linecap="square"/><path d=" M 679.9045996592845 152.69505962521296 Q 669.0255536626917 152.69505962521296 659.988926746167 147.25553662691652 Q 650.9522998296422 141.81601362862008 645.8637137989779 133.21805792163542 L 645.8637137989779 150.9403747870528 L 635.160136286201 150.9403747870528 L 635.160136286201 22.848381601362846 L 647.09199318569 22.848381601362846 L 647.09199318569 78.64735945485519 Q 653.2333901192504 69.34752981260647 661.8313458262351 63.64480408858603 Q 670.4293015332198 57.94207836456559 681.8347529812606 57.94207836456559 Q 691.4855195911414 57.94207836456559 699.118398637138 61.97785349233391 Q 706.7512776831346 66.01362862010222 712.103066439523 72.76916524701873 Q 717.4548551959115 79.52470187393527 720.3500851788756 88.03492333901193 Q 723.2453151618399 96.54514480408858 723.2453151618399 105.49403747870527 Q 723.2453151618399 115.14480408858603 719.9114139693356 123.74275979557069 Q 716.5775127768313 132.34071550255538 710.7870528109029 138.74531516183987 Q 704.9965928449744 145.14991482112436 697.0127768313458 148.92248722316864 Q 689.0289608177172 152.69505962521296 679.9045996592845 152.69505962521296 Z  M 677.0971039182283 142.16695059625212 Q 684.6422487223168 142.16695059625212 690.8713798977853 139.09625212947188 Q 697.1005110732539 136.02555366269164 701.5749574105622 130.84923339011922 Q 706.0494037478705 125.67291311754687 708.5936967632027 119.09284497444631 Q 711.1379897785349 112.5127768313458 711.1379897785349 105.49403747870527 Q 711.1379897785349 98.29982964224872 708.7691652470187 91.6320272572402 Q 706.4003407155026 84.96422487223168 702.1013628620102 79.78790459965929 Q 697.8023850085178 74.61158432708687 691.7487223168654 71.54088586030663 Q 685.6950596252129 68.4701873935264 678.5008517887563 68.4701873935264 Q 673.0613287904599 68.4701873935264 668.3236797274276 70.31260647359454 Q 663.5860306643953 72.1550255536627 659.5502555366269 75.31345826235093 Q 655.5144804088586 78.47189097103917 652.3560477001704 82.5954003407155 Q 649.1976149914822 86.71890971039183 647.09199318569 91.28109028960819 L 647.09199318569 119.7069846678024 Q 647.793867120954 124.44463373083474 650.8645655877342 128.5681431005111 Q 653.9352640545145 132.6916524701874 658.2342419080068 135.67461669505963 Q 662.5332197614991 138.65758091993186 667.5340715502556 140.412265758092 Q 672.5349233390119 142.16695059625212 677.0971039182283 142.16695059625212 Z  M 743.9505962521295 22.848381601362846 L 755.8824531516184 22.848381601362846 L 755.8824531516184 130.2350936967632 Q 755.8824531516184 135.3236797274276 758.6899488926747 138.2189097103918 Q 761.4974446337309 141.11413969335604 766.5860306643953 141.11413969335604 Q 768.5161839863714 141.11413969335604 771.1482112436116 140.587734241908 Q 773.7802385008517 140.06132879045995 776.0613287904599 139.1839863713799 L 778.1669505962521 148.83475298126064 Q 774.8330494037479 150.23850085178876 770.0076660988075 151.11584327086882 Q 765.1822827938671 151.99318568994892 761.6729131175468 151.99318568994892 Q 753.4258943781942 151.99318568994892 748.6882453151618 147.34327086882453 Q 743.9505962521295 142.69335604770015 743.9505962521295 134.27086882453153 L 743.9505962521295 22.848381601362846 Z  M 830.1056218057922 152.69505962521296 Q 820.1039182282793 152.69505962521296 811.8568994889267 148.92248722316864 Q 803.6098807495741 145.14991482112436 797.5562180579217 138.65758091993186 Q 791.5025553662692 132.16524701873936 788.1686541737649 123.5672913117547 Q 784.8347529812606 114.96933560477001 784.8347529812606 105.49403747870527 Q 784.8347529812606 95.84327086882453 788.256388415673 87.24531516183986 Q 791.6780238500852 78.64735945485519 797.7316865417376 72.1550255536627 Q 803.7853492333902 65.66269165247019 812.0323679727428 61.80238500851789 Q 820.2793867120954 57.94207836456559 830.1056218057922 57.94207836456559 Q 839.9318568994889 57.94207836456559 848.2666098807496 61.80238500851789 Q 856.6013628620103 65.66269165247019 862.6550255536627 72.1550255536627 Q 868.7086882453152 78.64735945485519 872.1303236797274 87.24531516183986 Q 875.5519591141397 95.84327086882453 875.5519591141397 105.49403747870527 Q 875.5519591141397 114.96933560477001 872.2180579216355 123.5672913117547 Q 868.8841567291312 132.16524701873936 862.8304940374787 138.65758091993186 Q 856.7768313458263 145.14991482112436 848.4420783645656 148.92248722316864 Q 840.1073253833049 152.69505962521296 830.1056218057922 152.69505962521296 Z  M 796.9420783645656 105.6695059625213 Q 796.9420783645656 113.39011925042591 799.5741056218058 119.9701873935264 Q 802.206132879046 126.5502555366269 806.6805792163543 131.55110732538333 Q 811.1550255536627 136.5519591141397 817.2086882453152 139.3594548551959 Q 823.2623509369677 142.16695059625212 830.1056218057922 142.16695059625212 Q 836.9488926746167 142.16695059625212 843.0025553662692 139.2717206132879 Q 849.0562180579217 136.37649063032367 853.6183986371381 131.3756388415673 Q 858.1805792163543 126.37478705281092 860.8126064735945 119.7069846678024 Q 863.4446337308348 113.03918228279387 863.4446337308348 105.31856899488926 Q 863.4446337308348 97.77342419080068 860.8126064735945 91.01788756388416 Q 858.1805792163543 84.26235093696764 853.6183986371381 79.26149914821124 Q 849.0562180579217 74.26064735945485 843.0025553662692 71.36541737649063 Q 836.9488926746167 68.4701873935264 830.1056218057922 68.4701873935264 Q 823.2623509369677 68.4701873935264 817.2964224872233 71.36541737649063 Q 811.3304940374787 74.26064735945485 806.7683134582624 79.34923339011925 Q 802.206132879046 84.43781942078364 799.5741056218058 91.19335604770018 Q 796.9420783645656 97.94889267461669 796.9420783645656 105.6695059625213 Z  M 932.2282793867121 152.1686541737649 Q 922.7529812606474 152.1686541737649 914.9446337308348 148.2206132879046 Q 907.1362862010221 144.2725724020443 901.4335604770017 137.7802385008518 Q 895.7308347529813 131.28790459965927 892.5724020442931 122.86541737649063 Q 889.4139693356049 114.44293015332198 889.4139693356049 105.49403747870527 Q 889.4139693356049 96.01873935264054 892.484667802385 87.33304940374786 Q 895.5553662691652 78.64735945485519 901.1703577512777 72.1550255536627 Q 906.7853492333902 65.66269165247019 914.5936967632027 61.80238500851789 Q 922.4020442930154 57.94207836456559 931.8773424190802 57.94207836456559 Q 943.633730834753 57.94207836456559 952.2316865417376 63.82027257240205 Q 960.8296422487224 69.69846678023849 966.9710391822828 78.64735945485519 L 966.9710391822828 59.5212947189097 L 977.6746166950597 59.5212947189097 L 977.6746166950597 151.29131175468484 Q 977.6746166950597 160.7666098807496 974.0775127768313 168.04855195911415 Q 970.4804088586031 175.3304940374787 964.4267461669506 180.24361158432708 Q 958.3730834752981 185.15672913117547 950.2137989778535 187.61328790459967 Q 942.0545144804089 190.06984667802385 932.9301533219761 190.06984667802385 Q 917.1379897785349 190.06984667802385 907.4872231686543 184.45485519591142 Q 897.8364565587734 178.839863713799 891.870528109029 169.36456558773423 L 899.2402044293015 163.57410562180578 Q 904.679727427598 172.34752981260647 913.6286201022147 176.4710391822828 Q 922.5775127768313 180.5945485519591 932.9301533219761 180.5945485519591 Q 939.5979557069847 180.5945485519591 945.5638841567292 178.75212947189098 Q 951.5298126064736 176.9097103918228 956.0042589437819 173.31260647359454 Q 960.4787052810904 169.71550255536627 963.1107325383305 164.18824531516185 Q 965.7427597955707 158.6609880749574 965.7427597955707 151.29131175468484 L 965.7427597955707 133.21805792163542 Q 960.4787052810904 141.9914821124361 951.3543441226576 147.0800681431005 Q 942.229982964225 152.1686541737649 932.2282793867121 152.1686541737649 Z  M 935.5621805792164 142.16695059625212 Q 940.8262350936968 142.16695059625212 945.9148211243612 140.236797274276 Q 951.0034071550256 138.30664395229982 955.126916524702 135.0604770017036 Q 959.2504258943782 131.81431005110733 962.0579216354345 127.77853492333901 Q 964.8654173764907 123.74275979557069 965.7427597955707 119.53151618398635 L 965.7427597955707 91.28109028960819 Q 963.8126064735945 86.36797274275979 960.4787052810904 82.15672913117547 Q 957.144804088586 77.94548551959114 952.9335604770017 74.96252129471891 Q 948.7223168654174 71.97955706984668 943.896933560477 70.22487223168653 Q 939.0715502555366 68.4701873935264 934.1584327086882 68.4701873935264 Q 926.4378194207836 68.4701873935264 920.3841567291313 71.71635434412265 Q 914.3304940374787 74.96252129471891 910.1192504258944 80.22657580919932 Q 905.90800681431 85.49063032367972 903.7146507666099 92.15843270868824 Q 901.5212947189098 98.82623509369675 901.5212947189098 105.6695059625213 Q 901.5212947189098 113.03918228279387 904.15332197615 119.7069846678024 Q 906.7853492333902 126.37478705281092 911.4352640545145 131.3756388415673 Q 916.0851788756388 136.37649063032367 922.2265758091994 139.2717206132879 Q 928.3679727427598 142.16695059625212 935.5621805792164 142.16695059625212 Z " fill-rule="evenodd" fill="rgb(255,255,255)" stroke-width="0" stroke="rgb(102,102,102)" stroke-linejoin="miter" stroke-linecap="square"/></svg>