<?xml version="1.0" standalone="no"?><!-- Generator: Gravit.io --><svg xmlns="http://www.w3.org/2000/svg" xmlns:xlink="http://www.w3.org/1999/xlink" style="isolation:isolate" width="608" height="152"><path d=" M 39.441649484536086 3.5134020618556665 Q 40.71092783505155 3.5134020618556665 41.59237113402062 4.394845360824739 Q 42.47381443298969 5.27628865979381 42.47381443298969 6.545567010309281 Q 42.47381443298969 7.814845360824741 41.59237113402062 8.66103092783505 Q 40.71092783505155 9.507216494845363 39.441649484536086 9.507216494845363 L 25.12701030927835 9.507216494845363 L 25.12701030927835 49.91257731958764 Q 25.12701030927835 51.25237113402063 24.17505154639175 52.16907216494846 Q 23.22309278350515 53.0857731958763 21.88329896907216 53.0857731958763 Q 20.54350515463917 53.0857731958763 19.626804123711338 52.16907216494846 Q 18.710103092783502 51.25237113402063 18.710103092783502 49.91257731958764 L 18.710103092783502 9.507216494845363 L 4.324948453608241 9.507216494845363 Q 3.055670103092776 9.507216494845363 2.2094845360824666 8.66103092783505 Q 1.3632989690721573 7.814845360824741 1.3632989690721573 6.545567010309281 Q 1.3632989690721573 5.27628865979381 2.2094845360824666 4.394845360824739 Q 3.055670103092776 3.5134020618556665 4.324948453608241 3.5134020618556665 L 39.441649484536086 3.5134020618556665 Z  M 86.61649484536083 3.1608247422680407 Q 87.95628865979383 3.1608247422680407 88.90824742268042 4.112783505154635 Q 89.86020618556702 5.064742268041236 89.86020618556702 6.404536082474227 L 89.86020618556702 49.91257731958764 Q 89.86020618556702 51.25237113402063 88.90824742268042 52.16907216494846 Q 87.95628865979383 53.0857731958763 86.61649484536083 53.0857731958763 Q 85.27670103092784 53.0857731958763 84.36000000000001 52.16907216494846 Q 83.44329896907217 51.25237113402063 83.44329896907217 49.91257731958764 L 83.44329896907217 31.15546391752578 L 56.7179381443299 31.15546391752578 L 56.7179381443299 49.91257731958764 Q 56.7179381443299 51.25237113402063 55.7659793814433 52.16907216494846 Q 54.8140206185567 53.0857731958763 53.47422680412372 53.0857731958763 Q 52.13443298969073 53.0857731958763 51.21773195876289 52.16907216494846 Q 50.30103092783506 51.25237113402063 50.30103092783506 49.91257731958764 L 50.30103092783506 6.404536082474227 Q 50.30103092783506 5.064742268041236 51.21773195876289 4.112783505154635 Q 52.13443298969073 3.1608247422680407 53.47422680412372 3.1608247422680407 Q 54.8140206185567 3.1608247422680407 55.7659793814433 4.112783505154635 Q 56.7179381443299 5.064742268041236 56.7179381443299 6.404536082474227 L 56.7179381443299 25.161649484536085 L 83.44329896907217 25.161649484536085 L 83.44329896907217 6.404536082474227 Q 83.44329896907217 5.064742268041236 84.36000000000001 4.112783505154635 Q 85.27670103092784 3.1608247422680407 86.61649484536083 3.1608247422680407 Z  M 125.32948453608249 2.8082474226804095 Q 136.47092783505155 2.8082474226804095 143.24041237113406 9.930309278350517 Q 149.79835051546397 16.911340206185567 150.08041237113406 28.123298969072174 Q 149.79835051546397 39.33525773195878 143.24041237113406 46.31628865979383 Q 136.47092783505155 53.43835051546394 125.32948453608249 53.43835051546394 Q 114.1175257731959 53.43835051546394 107.41855670103095 46.31628865979383 Q 100.719587628866 39.264742268041246 100.57855670103093 28.123298969072174 Q 100.719587628866 16.981855670103098 107.41855670103095 9.930309278350517 Q 114.1175257731959 2.8082474226804095 125.32948453608249 2.8082474226804095 Z  M 125.32948453608249 47.44453608247424 Q 133.93237113402066 47.44453608247424 138.86845360824745 41.8738144329897 Q 143.6635051546392 36.514639175257734 143.6635051546392 28.123298969072174 Q 143.6635051546392 19.731958762886602 138.86845360824745 14.372783505154636 Q 133.93237113402066 8.8020618556701 125.32948453608249 8.8020618556701 Q 116.72659793814435 8.8020618556701 111.79051546391754 14.372783505154636 Q 106.99546391752578 19.731958762886602 106.99546391752578 28.123298969072174 Q 106.99546391752578 36.514639175257734 111.79051546391754 41.8738144329897 Q 116.72659793814435 47.44453608247424 125.32948453608249 47.44453608247424 Z  M 210.5826804123712 3.1608247422680407 Q 212.48659793814434 3.1608247422680407 213.82639175257736 4.535876288659789 Q 215.16618556701033 5.910927835051545 215.16618556701033 7.814845360824741 L 215.16618556701033 49.91257731958764 Q 215.16618556701033 51.25237113402063 214.2494845360825 52.16907216494846 Q 213.33278350515468 53.0857731958763 211.99298969072166 53.0857731958763 Q 210.6531958762887 53.0857731958763 209.7012371134021 52.16907216494846 Q 208.74927835051548 51.25237113402063 208.74927835051548 49.91257731958764 L 208.74927835051548 9.85979381443299 L 192.46020618556702 50.12412371134022 Q 191.89608247422683 51.463917525773205 190.6973195876289 52.274845360824756 Q 189.49855670103094 53.0857731958763 187.94721649484538 53.0857731958763 Q 186.39587628865982 53.0857731958763 185.1971134020619 52.274845360824756 Q 183.99835051546395 51.463917525773205 183.43422680412374 50.12412371134022 L 167.14515463917527 9.85979381443299 L 167.14515463917527 49.91257731958764 Q 167.14515463917527 51.25237113402063 166.19319587628868 52.16907216494846 Q 165.2412371134021 53.0857731958763 163.9014432989691 53.0857731958763 Q 162.5616494845361 53.0857731958763 161.64494845360827 52.16907216494846 Q 160.72824742268043 51.25237113402063 160.72824742268043 49.91257731958764 L 160.72824742268043 7.814845360824741 Q 160.72824742268043 5.910927835051545 162.06804123711342 4.535876288659789 Q 163.4078350515464 3.1608247422680407 165.31175257731962 3.1608247422680407 L 167.63876288659796 3.1608247422680407 Q 169.04907216494848 3.1608247422680407 170.21257731958767 4.00701030927835 Q 171.37608247422682 4.853195876288659 171.94020618556704 6.122474226804126 L 187.94721649484538 46.03422680412372 L 203.95422680412372 6.122474226804126 Q 204.51835051546396 4.853195876288659 205.68185567010315 4.00701030927835 Q 206.84536082474233 3.1608247422680407 208.2556701030928 3.1608247422680407 L 210.5826804123712 3.1608247422680407 Z  M 269.0400000000001 48.502268041237116 Q 269.3925773195877 49.348453608247425 269.3925773195877 50.30041237113403 Q 269.3925773195877 51.25237113402063 268.54639175257734 52.16907216494846 Q 267.700206185567 53.0857731958763 265.8668041237114 53.0857731958763 Q 264.0334020618557 53.0857731958763 263.1872164948454 51.11134020618558 L 258.6037113402062 40.110927835051555 L 234.62845360824747 40.110927835051555 L 230.04494845360827 51.11134020618558 Q 229.198762886598 53.0857731958763 227.36536082474228 53.0857731958763 Q 225.53195876288663 53.0857731958763 224.68577319587632 52.16907216494846 Q 223.83958762886598 51.25237113402063 223.83958762886598 50.30041237113403 Q 223.83958762886598 49.348453608247425 224.19216494845367 48.502268041237116 L 242.17360824742272 6.051958762886596 Q 243.44288659793818 3.1608247422680407 246.2635051546392 3.1608247422680407 L 246.96865979381448 3.1608247422680407 Q 249.7892783505155 3.1608247422680407 251.05855670103097 6.051958762886596 L 269.0400000000001 48.502268041237116 Z  M 256.1356701030928 34.258144329896915 L 246.61608247422686 11.340618556701031 L 237.09649484536087 34.258144329896915 L 256.1356701030928 34.258144329896915 Z  M 292.87422680412374 47.374020618556706 Q 305.21443298969075 47.374020618556706 305.21443298969075 39.264742268041246 Q 305.21443298969075 35.88000000000001 300.4898969072166 33.83505154639176 Q 298.4449484536083 32.988865979381444 295.73010309278357 32.318969072164954 Q 293.0152577319588 31.649072164948464 290.2298969072165 30.87340206185568 Q 287.4445360824743 30.097731958762893 284.72969072164955 29.11051546391753 Q 282.01484536082484 28.123298969072174 279.89938144329903 26.571958762886602 Q 275.24536082474236 23.046185567010312 275.24536082474236 17.2639175257732 Q 275.24536082474236 11.058556701030927 279.89938144329903 7.109690721649486 Q 284.9764948453609 2.8082474226804095 293.5088659793815 2.8082474226804095 Q 301.1950515463918 2.8082474226804095 307.5414432989691 5.13525773195876 Q 309.51587628865985 5.840412371134022 309.51587628865985 7.955876288659791 Q 309.51587628865985 9.013608247422681 308.7754639175258 9.965567010309275 Q 308.0350515463918 10.917525773195877 307.15360824742277 10.917525773195877 Q 306.2721649484537 10.917525773195877 304.72082474226806 10.353402061855672 Q 300.13731958762895 8.731546391752577 294.2140206185568 8.731546391752577 Q 288.7843298969073 8.731546391752577 285.258556701031 10.776494845360826 Q 281.6622680412372 12.891958762886595 281.6622680412372 16.770309278350517 Q 281.6622680412372 20.789690721649492 286.3162886597939 22.834639175257735 Q 288.4317525773197 23.821855670103098 291.1113402061856 24.45649484536083 Q 293.7909278350516 25.09113402061856 296.61154639175265 25.796288659793824 Q 299.43216494845365 26.50144329896908 302.11175257731963 27.45340206185567 Q 304.7913402061856 28.405360824742274 306.9068041237114 29.95670103092784 Q 311.5608247422681 33.341443298969075 311.5608247422681 39.68783505154641 Q 311.5608247422681 45.75216494845362 306.69525773195886 49.56000000000001 Q 301.68865979381445 53.43835051546394 293.5088659793815 53.43835051546394 Q 284.55340206185576 53.43835051546394 276.72618556701036 50.05360824742269 Q 275.9505154639176 49.701030927835056 275.35113402061864 48.92536082474228 Q 274.7517525773196 48.1496907216495 274.7517525773196 47.05670103092784 Q 274.7517525773196 45.963711340206196 275.5274226804124 45.08226804123712 Q 276.30309278350524 44.20082474226805 277.3255670103093 44.20082474226805 Q 278.3480412371135 44.20082474226805 279.86412371134026 44.870721649484544 Q 281.3802061855671 45.54061855670105 284.83546391752583 46.457319587628874 Q 288.2907216494846 47.374020618556706 292.87422680412374 47.374020618556706 Z " fill-rule="evenodd" fill="rgb(0,189,173)" stroke-width="4" stroke="rgb(0,189,173)" stroke-linejoin="miter" stroke-linecap="square"/><path d=" M 355.2647422680411 3.1608247422680407 Q 356.6045360824741 3.1608247422680407 357.5564948453607 4.112783505154635 Q 358.50845360824735 5.064742268041236 358.50845360824735 6.404536082474227 L 358.50845360824735 36.514639175257734 Q 358.50845360824735 45.75216494845362 353.9249484536082 50.05360824742269 Q 350.2581443298968 53.43835051546394 343.98226804123703 53.43835051546394 Q 338.8346391752576 53.43835051546394 334.6037113402061 51.04082474226805 Q 333.0523711340205 50.19463917525775 333.0523711340205 48.749072164948466 Q 333.0523711340205 47.30350515463919 333.79278350515455 46.422061855670115 Q 334.5331958762886 45.54061855670105 335.48515463917516 45.54061855670105 Q 336.43711340206175 45.54061855670105 337.4243298969071 46.03422680412372 Q 340.1039175257731 47.374020618556706 342.60721649484526 47.374020618556706 Q 345.1105154639174 47.374020618556706 346.661855670103 46.986185567010324 Q 348.2131958762886 46.59835051546393 349.4119587628865 45.47010309278352 Q 352.0915463917525 42.93154639175258 352.0915463917525 36.937731958762896 L 352.0915463917525 6.404536082474227 Q 352.0915463917525 5.064742268041236 353.0082474226803 4.112783505154635 Q 353.9249484536082 3.1608247422680407 355.2647422680411 3.1608247422680407 Z  M 393.6956701030927 2.8082474226804095 Q 404.83711340206173 2.8082474226804095 411.60659793814426 9.930309278350517 Q 418.1645360824741 16.911340206185567 418.44659793814424 28.123298969072174 Q 418.1645360824741 39.33525773195878 411.60659793814426 46.31628865979383 Q 404.83711340206173 53.43835051546394 393.6956701030927 53.43835051546394 Q 382.4837113402061 53.43835051546394 375.78474226804116 46.31628865979383 Q 369.0857731958762 39.264742268041246 368.9447422680411 28.123298969072174 Q 369.0857731958762 16.981855670103098 375.78474226804116 9.930309278350517 Q 382.4837113402061 2.8082474226804095 393.6956701030927 2.8082474226804095 Z  M 393.6956701030927 47.44453608247424 Q 402.29855670103086 47.44453608247424 407.23463917525766 41.8738144329897 Q 412.0296907216494 36.514639175257734 412.0296907216494 28.123298969072174 Q 412.0296907216494 19.731958762886602 407.23463917525766 14.372783505154636 Q 402.29855670103086 8.8020618556701 393.6956701030927 8.8020618556701 Q 385.09278350515456 8.8020618556701 380.15670103092776 14.372783505154636 Q 375.361649484536 19.731958762886602 375.361649484536 28.123298969072174 Q 375.361649484536 36.514639175257734 380.15670103092776 41.8738144329897 Q 385.09278350515456 47.44453608247424 393.6956701030927 47.44453608247424 Z  M 443.97319587628857 47.374020618556706 Q 456.3134020618556 47.374020618556706 456.3134020618556 39.264742268041246 Q 456.3134020618556 35.88000000000001 451.58886597938135 33.83505154639176 Q 449.5439175257731 32.988865979381444 446.82907216494834 32.318969072164954 Q 444.11422680412363 31.649072164948464 441.32886597938136 30.87340206185568 Q 438.5435051546391 30.097731958762893 435.8286597938144 29.11051546391753 Q 433.1138144329896 28.123298969072174 430.9983505154638 26.571958762886602 Q 426.34432989690714 23.046185567010312 426.34432989690714 17.2639175257732 Q 426.34432989690714 11.058556701030927 430.9983505154638 7.109690721649486 Q 436.07546391752567 2.8082474226804095 444.6078350515463 2.8082474226804095 Q 452.2940206185566 2.8082474226804095 458.64041237113395 5.13525773195876 Q 460.6148453608247 5.840412371134022 460.6148453608247 7.955876288659791 Q 460.6148453608247 9.013608247422681 459.87443298969066 9.965567010309275 Q 459.13402061855663 10.917525773195877 458.25257731958754 10.917525773195877 Q 457.37113402061846 10.917525773195877 455.8197938144329 10.353402061855672 Q 451.23628865979373 8.731546391752577 445.31298969072157 8.731546391752577 Q 439.8832989690721 8.731546391752577 436.3575257731958 10.776494845360826 Q 432.761237113402 12.891958762886595 432.761237113402 16.770309278350517 Q 432.761237113402 20.789690721649492 437.4152577319587 22.834639175257735 Q 439.53072164948446 23.821855670103098 442.21030927835045 24.45649484536083 Q 444.88989690721644 25.09113402061856 447.71051546391743 25.796288659793824 Q 450.5311340206185 26.50144329896908 453.21072164948447 27.45340206185567 Q 455.89030927835046 28.405360824742274 458.00577319587626 29.95670103092784 Q 462.65979381443293 33.341443298969075 462.65979381443293 39.68783505154641 Q 462.65979381443293 45.75216494845362 457.79422680412364 49.56000000000001 Q 452.7876288659793 53.43835051546394 444.6078350515463 53.43835051546394 Q 435.65237113402054 53.43835051546394 427.8251546391752 50.05360824742269 Q 427.0494845360824 49.701030927835056 426.4501030927834 48.92536082474228 Q 425.85072164948446 48.1496907216495 425.85072164948446 47.05670103092784 Q 425.85072164948446 45.963711340206196 426.6263917525772 45.08226804123712 Q 427.40206185567 44.20082474226805 428.42453608247416 44.20082474226805 Q 429.44701030927826 44.20082474226805 430.9630927835051 44.870721649484544 Q 432.47917525773187 45.54061855670105 435.93443298969066 46.457319587628874 Q 439.3896907216494 47.374020618556706 443.97319587628857 47.374020618556706 Z  M 503.9818556701031 46.739381443298974 Q 505.2511340206185 46.739381443298974 506.1325773195876 47.62082474226805 Q 507.01402061855663 48.502268041237116 507.01402061855663 49.77154639175259 Q 507.01402061855663 51.04082474226805 506.1325773195876 51.88701030927836 Q 505.2511340206185 52.733195876288676 503.9818556701031 52.733195876288676 L 475.7051546391752 52.733195876288676 Q 474.3653608247422 52.733195876288676 473.4486597938144 51.816494845360836 Q 472.5319587628865 50.899793814432996 472.5319587628865 49.56000000000001 L 472.5319587628865 6.757113402061854 Q 472.5319587628865 5.417319587628864 473.4486597938144 4.465360824742266 Q 474.3653608247422 3.5134020618556665 475.7051546391752 3.5134020618556665 L 503.9818556701031 3.5134020618556665 Q 505.2511340206185 3.5134020618556665 506.1325773195876 4.394845360824739 Q 507.01402061855663 5.27628865979381 507.01402061855663 6.545567010309281 Q 507.01402061855663 7.814845360824741 506.1325773195876 8.66103092783505 Q 505.2511340206185 9.507216494845363 503.9818556701031 9.507216494845363 L 478.94886597938137 9.507216494845363 L 478.94886597938137 25.09113402061856 L 501.4432989690721 25.09113402061856 Q 502.7125773195876 25.09113402061856 503.59402061855667 25.97257731958763 Q 504.47546391752576 26.854020618556703 504.47546391752576 28.123298969072174 Q 504.47546391752576 29.39257731958763 503.59402061855667 30.238762886597947 Q 502.7125773195876 31.084948453608256 501.4432989690721 31.084948453608256 L 478.94886597938137 31.084948453608256 L 478.94886597938137 46.739381443298974 L 503.9818556701031 46.739381443298974 Z  M 536.7715463917525 3.5134020618556665 Q 546.5731958762885 3.5134020618556665 551.5092783505154 8.590515463917527 Q 555.599175257732 12.680412371134022 555.599175257732 19.167835051546394 Q 555.599175257732 25.655257731958763 551.5092783505154 29.74515463917526 Q 546.5731958762885 34.822268041237116 536.7715463917525 34.822268041237116 L 523.9377319587628 34.822268041237116 L 523.9377319587628 49.91257731958764 Q 523.9377319587628 51.25237113402063 522.9857731958763 52.16907216494846 Q 522.0338144329896 53.0857731958763 520.6940206185566 53.0857731958763 Q 519.3542268041236 53.0857731958763 518.4375257731958 52.16907216494846 Q 517.520824742268 51.25237113402063 517.520824742268 49.91257731958764 L 517.520824742268 6.757113402061854 Q 517.520824742268 5.417319587628864 518.4375257731958 4.465360824742266 Q 519.3542268041236 3.5134020618556665 520.6940206185566 3.5134020618556665 L 536.7715463917525 3.5134020618556665 Z  M 536.1369072164948 28.757938144329906 Q 543.4 28.757938144329906 546.6437113402062 25.655257731958763 Q 549.1822680412371 23.25773195876289 549.1822680412371 19.167835051546394 Q 549.1822680412371 12.609896907216495 542.6243298969072 10.423917525773195 Q 540.0857731958763 9.577731958762886 536.1369072164948 9.577731958762886 L 523.9377319587628 9.577731958762886 L 523.9377319587628 28.757938144329906 L 536.1369072164948 28.757938144329906 Z  M 601.0111340206186 3.1608247422680407 Q 602.3509278350516 3.1608247422680407 603.3028865979381 4.112783505154635 Q 604.2548453608247 5.064742268041236 604.2548453608247 6.404536082474227 L 604.2548453608247 49.91257731958764 Q 604.2548453608247 51.25237113402063 603.3028865979381 52.16907216494846 Q 602.3509278350516 53.0857731958763 601.0111340206186 53.0857731958763 Q 599.6713402061855 53.0857731958763 598.7546391752577 52.16907216494846 Q 597.8379381443299 51.25237113402063 597.8379381443299 49.91257731958764 L 597.8379381443299 31.15546391752578 L 571.1125773195877 31.15546391752578 L 571.1125773195877 49.91257731958764 Q 571.1125773195877 51.25237113402063 570.160618556701 52.16907216494846 Q 569.2086597938144 53.0857731958763 567.8688659793813 53.0857731958763 Q 566.5290721649484 53.0857731958763 565.6123711340206 52.16907216494846 Q 564.6956701030928 51.25237113402063 564.6956701030928 49.91257731958764 L 564.6956701030928 6.404536082474227 Q 564.6956701030928 5.064742268041236 565.6123711340206 4.112783505154635 Q 566.5290721649484 3.1608247422680407 567.8688659793813 3.1608247422680407 Q 569.2086597938144 3.1608247422680407 570.160618556701 4.112783505154635 Q 571.1125773195877 5.064742268041236 571.1125773195877 6.404536082474227 L 571.1125773195877 25.161649484536085 L 597.8379381443299 25.161649484536085 L 597.8379381443299 6.404536082474227 Q 597.8379381443299 5.064742268041236 598.7546391752577 4.112783505154635 Q 599.6713402061855 3.1608247422680407 601.0111340206186 3.1608247422680407 Z " fill-rule="evenodd" fill="rgb(0,189,173)" stroke-width="0" stroke="rgb(0,189,173)" stroke-opacity="0" stroke-linejoin="miter" stroke-linecap="square"/><path d=" M 4.01 131.6 L 4.01 67.69999999999999 L 25.7 67.69999999999999 Q 33.35 67.69999999999999 39.065 70.22 Q 44.78 72.74 48.605 77.06 Q 52.43 81.38 54.364999999999995 87.185 Q 56.3 92.99 56.3 99.56 Q 56.3 106.85 54.14 112.74499999999999 Q 51.98 118.64 47.975 122.82499999999999 Q 43.97 127.00999999999999 38.345 129.305 Q 32.72 131.6 25.7 131.6 L 4.01 131.6 Z  M 50 99.56 Q 50 93.8 48.379999999999995 88.985 Q 46.76 84.16999999999999 43.655 80.66 Q 40.55 77.15 36.05 75.215 Q 31.549999999999997 73.28 25.7 73.28 L 10.309999999999999 73.28 L 10.309999999999999 126.02 L 25.7 126.02 Q 31.64 126.02 36.184999999999995 123.99499999999999 Q 40.73 121.97 43.79 118.41499999999999 Q 46.85 114.86 48.425 110.04499999999999 Q 50 105.22999999999999 50 99.56 Z  M 87.35 132.5 Q 82.22 132.5 77.945 130.565 Q 73.66999999999999 128.63 70.52 125.255 Q 67.36999999999999 121.88 65.615 117.47 Q 63.86 113.06 63.86 108.02 Q 63.86 103.07 65.615 98.705 Q 67.36999999999999 94.34 70.475 91.05499999999999 Q 73.58 87.77 77.89999999999999 85.835 Q 82.22 83.9 87.25999999999999 83.9 Q 92.38999999999999 83.9 96.66499999999999 85.835 Q 100.94 87.77 104 91.1 Q 107.06 94.42999999999999 108.77 98.75 Q 110.47999999999999 103.07 110.47999999999999 107.92999999999999 Q 110.47999999999999 108.64999999999999 110.47999999999999 109.36999999999999 Q 110.47999999999999 110.09 110.38999999999999 110.36 L 70.25 110.36 Q 70.52 114.13999999999999 72.005 117.335 Q 73.49 120.53 75.83 122.86999999999999 Q 78.16999999999999 125.21 81.185 126.515 Q 84.19999999999999 127.82 87.61999999999999 127.82 Q 89.86999999999999 127.82 92.11999999999999 127.19 Q 94.36999999999999 126.55999999999999 96.25999999999999 125.47999999999999 Q 98.14999999999999 124.39999999999999 99.67999999999999 122.82499999999999 Q 101.21 121.25 102.02 119.36 L 107.32999999999998 120.8 Q 106.25 123.41 104.27 125.52499999999999 Q 102.28999999999999 127.64 99.67999999999999 129.21499999999997 Q 97.07 130.79 93.91999999999999 131.64499999999998 Q 90.77 132.5 87.35 132.5 Z  M 104.63 105.67999999999999 Q 104.35999999999999 101.89999999999999 102.875 98.79499999999999 Q 101.38999999999999 95.69 99.095 93.44 Q 96.79999999999998 91.19 93.785 89.92999999999999 Q 90.77 88.66999999999999 87.35 88.66999999999999 Q 83.92999999999999 88.66999999999999 80.86999999999999 89.92999999999999 Q 77.81 91.19 75.51499999999999 93.44 Q 73.22 95.69 71.82499999999999 98.84 Q 70.42999999999999 101.99 70.16 105.67999999999999 L 104.63 105.67999999999999 Z  M 133.97 131.6 L 114.88999999999999 84.71 L 121.19 84.71 L 137.29999999999998 125.92999999999999 L 153.5 84.71 L 159.44 84.71 L 140.35999999999999 131.6 L 133.97 131.6 Z  M 188.14999999999998 132.5 Q 183.01999999999998 132.5 178.74499999999998 130.565 Q 174.46999999999997 128.63 171.31999999999996 125.255 Q 168.17 121.88 166.41499999999996 117.47 Q 164.65999999999997 113.06 164.65999999999997 108.02 Q 164.65999999999997 103.07 166.41499999999996 98.705 Q 168.17 94.34 171.27499999999998 91.05499999999999 Q 174.37999999999997 87.77 178.7 85.835 Q 183.01999999999998 83.9 188.05999999999997 83.9 Q 193.18999999999997 83.9 197.46499999999997 85.835 Q 201.73999999999998 87.77 204.79999999999998 91.1 Q 207.85999999999999 94.42999999999999 209.57 98.75 Q 211.27999999999997 103.07 211.27999999999997 107.92999999999999 Q 211.27999999999997 108.64999999999999 211.27999999999997 109.36999999999999 Q 211.27999999999997 110.09 211.18999999999997 110.36 L 171.04999999999998 110.36 Q 171.31999999999996 114.13999999999999 172.80499999999998 117.335 Q 174.28999999999996 120.53 176.62999999999997 122.86999999999999 Q 178.96999999999997 125.21 181.98499999999999 126.515 Q 184.99999999999997 127.82 188.42 127.82 Q 190.67 127.82 192.92 127.19 Q 195.16999999999996 126.55999999999999 197.05999999999997 125.47999999999999 Q 198.95 124.39999999999999 200.47999999999996 122.82499999999999 Q 202.01 121.25 202.82 119.36 L 208.12999999999997 120.8 Q 207.04999999999998 123.41 205.07 125.52499999999999 Q 203.08999999999997 127.64 200.47999999999996 129.21499999999997 Q 197.86999999999998 130.79 194.71999999999997 131.64499999999998 Q 191.56999999999996 132.5 188.14999999999998 132.5 Z  M 205.42999999999998 105.67999999999999 Q 205.15999999999997 101.89999999999999 203.67499999999998 98.79499999999999 Q 202.18999999999997 95.69 199.89499999999998 93.44 Q 197.59999999999997 91.19 194.58499999999998 89.92999999999999 Q 191.56999999999996 88.66999999999999 188.14999999999998 88.66999999999999 Q 184.72999999999996 88.66999999999999 181.67 89.92999999999999 Q 178.60999999999999 91.19 176.31499999999997 93.44 Q 174.01999999999998 95.69 172.62499999999997 98.84 Q 171.23 101.99 170.95999999999998 105.67999999999999 L 205.42999999999998 105.67999999999999 Z  M 220.99999999999997 65.89999999999999 L 227.11999999999995 65.89999999999999 L 227.11999999999995 120.97999999999999 Q 227.11999999999995 123.58999999999999 228.55999999999997 125.07499999999999 Q 229.99999999999997 126.55999999999999 232.60999999999996 126.55999999999999 Q 233.59999999999997 126.55999999999999 234.94999999999996 126.28999999999999 Q 236.29999999999995 126.02 237.46999999999997 125.57 L 238.54999999999995 130.51999999999998 Q 236.83999999999997 131.24 234.36499999999995 131.69 Q 231.88999999999996 132.14 230.08999999999997 132.14 Q 225.85999999999996 132.14 223.42999999999995 129.755 Q 220.99999999999997 127.36999999999999 220.99999999999997 123.05 L 220.99999999999997 65.89999999999999 Z  M 265.18999999999994 132.5 Q 260.05999999999995 132.5 255.82999999999993 130.565 Q 251.59999999999994 128.63 248.49499999999995 125.3 Q 245.38999999999996 121.97 243.67999999999995 117.56 Q 241.96999999999994 113.14999999999999 241.96999999999994 108.28999999999999 Q 241.96999999999994 103.34 243.72499999999994 98.92999999999999 Q 245.47999999999996 94.52 248.58499999999995 91.19 Q 251.68999999999994 87.86 255.91999999999996 85.88 Q 260.15 83.9 265.18999999999994 83.9 Q 270.22999999999996 83.9 274.50499999999994 85.88 Q 278.78 87.86 281.88499999999993 91.19 Q 284.98999999999995 94.52 286.74499999999995 98.92999999999999 Q 288.49999999999994 103.34 288.49999999999994 108.28999999999999 Q 288.49999999999994 113.14999999999999 286.78999999999996 117.56 Q 285.0799999999999 121.97 281.97499999999997 125.3 Q 278.86999999999995 128.63 274.59499999999997 130.565 Q 270.31999999999994 132.5 265.18999999999994 132.5 Z  M 248.17999999999995 108.38 Q 248.17999999999995 112.34 249.52999999999994 115.71499999999999 Q 250.87999999999994 119.08999999999999 253.17499999999995 121.655 Q 255.46999999999997 124.22 258.57499999999993 125.66 Q 261.67999999999995 127.1 265.18999999999994 127.1 Q 268.69999999999993 127.1 271.80499999999995 125.615 Q 274.90999999999997 124.13 277.24999999999994 121.565 Q 279.5899999999999 119 280.93999999999994 115.58 Q 282.28999999999996 112.16 282.28999999999996 108.19999999999999 Q 282.28999999999996 104.33 280.93999999999994 100.865 Q 279.5899999999999 97.4 277.24999999999994 94.835 Q 274.90999999999997 92.27 271.80499999999995 90.785 Q 268.69999999999993 89.3 265.18999999999994 89.3 Q 261.67999999999995 89.3 258.61999999999995 90.785 Q 255.55999999999995 92.27 253.21999999999997 94.88 Q 250.87999999999994 97.49 249.52999999999994 100.955 Q 248.17999999999995 104.41999999999999 248.17999999999995 108.38 Z  M 322.69999999999993 132.5 Q 316.75999999999993 132.5 312.2149999999999 129.485 Q 307.66999999999996 126.47 304.87999999999994 121.88 L 304.87999999999994 150.76999999999998 L 298.75999999999993 150.76999999999998 L 298.75999999999993 84.71 L 304.24999999999994 84.71 L 304.24999999999994 93.8 Q 307.12999999999994 89.38999999999999 311.7199999999999 86.645 Q 316.30999999999995 83.9 321.7099999999999 83.9 Q 326.56999999999994 83.9 330.61999999999995 85.925 Q 334.66999999999996 87.94999999999999 337.63999999999993 91.32499999999999 Q 340.60999999999996 94.69999999999999 342.2749999999999 99.10999999999999 Q 343.93999999999994 103.52 343.93999999999994 108.19999999999999 Q 343.93999999999994 113.14999999999999 342.4099999999999 117.56 Q 340.87999999999994 121.97 338.04499999999996 125.3 Q 335.2099999999999 128.63 331.29499999999996 130.565 Q 327.37999999999994 132.5 322.69999999999993 132.5 Z  M 320.98999999999995 127.1 Q 324.7699999999999 127.1 327.87499999999994 125.47999999999999 Q 330.9799999999999 123.86 333.18499999999995 121.205 Q 335.38999999999993 118.55 336.55999999999995 115.175 Q 337.7299999999999 111.8 337.7299999999999 108.19999999999999 Q 337.7299999999999 104.41999999999999 336.37999999999994 101 Q 335.0299999999999 97.58 332.68999999999994 94.97 Q 330.3499999999999 92.35999999999999 327.1549999999999 90.83 Q 323.9599999999999 89.3 320.2699999999999 89.3 Q 317.92999999999995 89.3 315.36499999999995 90.245 Q 312.79999999999995 91.19 310.5949999999999 92.76499999999999 Q 308.38999999999993 94.34 306.81499999999994 96.455 Q 305.23999999999995 98.57 304.87999999999994 100.91 L 304.87999999999994 115.31 Q 305.9599999999999 117.83 307.62499999999994 119.99 Q 309.28999999999996 122.14999999999999 311.4049999999999 123.725 Q 313.5199999999999 125.3 315.94999999999993 126.19999999999999 Q 318.37999999999994 127.1 320.98999999999995 127.1 Z  M 374.53999999999996 132.5 Q 369.40999999999997 132.5 365.135 130.565 Q 360.85999999999996 128.63 357.71 125.255 Q 354.55999999999995 121.88 352.80499999999995 117.47 Q 351.04999999999995 113.06 351.04999999999995 108.02 Q 351.04999999999995 103.07 352.80499999999995 98.705 Q 354.55999999999995 94.34 357.66499999999996 91.05499999999999 Q 360.77 87.77 365.09 85.835 Q 369.40999999999997 83.9 374.45 83.9 Q 379.58 83.9 383.85499999999996 85.835 Q 388.12999999999994 87.77 391.18999999999994 91.1 Q 394.24999999999994 94.42999999999999 395.96 98.75 Q 397.66999999999996 103.07 397.66999999999996 107.92999999999999 Q 397.66999999999996 108.64999999999999 397.66999999999996 109.36999999999999 Q 397.66999999999996 110.09 397.58 110.36 L 357.43999999999994 110.36 Q 357.71 114.13999999999999 359.19499999999994 117.335 Q 360.67999999999995 120.53 363.02 122.86999999999999 Q 365.35999999999996 125.21 368.37499999999994 126.515 Q 371.39 127.82 374.80999999999995 127.82 Q 377.05999999999995 127.82 379.30999999999995 127.19 Q 381.55999999999995 126.55999999999999 383.44999999999993 125.47999999999999 Q 385.34 124.39999999999999 386.86999999999995 122.82499999999999 Q 388.4 121.25 389.21 119.36 L 394.52 120.8 Q 393.43999999999994 123.41 391.46 125.52499999999999 Q 389.47999999999996 127.64 386.86999999999995 129.21499999999997 Q 384.26 130.79 381.10999999999996 131.64499999999998 Q 377.96 132.5 374.53999999999996 132.5 Z  M 391.81999999999994 105.67999999999999 Q 391.54999999999995 101.89999999999999 390.06499999999994 98.79499999999999 Q 388.58 95.69 386.28499999999997 93.44 Q 383.98999999999995 91.19 380.97499999999997 89.92999999999999 Q 377.96 88.66999999999999 374.53999999999996 88.66999999999999 Q 371.11999999999995 88.66999999999999 368.05999999999995 89.92999999999999 Q 364.99999999999994 91.19 362.705 93.44 Q 360.40999999999997 95.69 359.015 98.84 Q 357.61999999999995 101.99 357.34999999999997 105.67999999999999 L 391.81999999999994 105.67999999999999 Z  M 430.5199999999999 90.10999999999999 Q 424.30999999999995 90.28999999999999 419.71999999999997 93.53 Q 415.12999999999994 96.77 413.23999999999995 102.44 L 413.23999999999995 131.6 L 407.11999999999995 131.6 L 407.11999999999995 84.71 L 412.87999999999994 84.71 L 412.87999999999994 95.96 Q 415.48999999999995 90.56 419.8999999999999 87.5 Q 424.30999999999995 84.44 429.34999999999997 84.44 Q 430.06999999999994 84.44 430.5199999999999 84.53 L 430.5199999999999 90.10999999999999 Z " fill-rule="evenodd" fill="rgb(255,255,255)" stroke-width="0" stroke="rgba(0,0,0,0)" stroke-linejoin="miter" stroke-linecap="square"/><path d=" M 490.40999999999997 67.69999999999999 L 490.40999999999997 131.6 L 484.2 131.6 L 484.2 101.72 L 446.31 101.72 L 446.31 131.6 L 440.01 131.6 L 440.01 67.69999999999999 L 446.31 67.69999999999999 L 446.31 96.13999999999999 L 484.2 96.13999999999999 L 484.2 67.69999999999999 L 490.40999999999997 67.69999999999999 Z  M 519.84 132.5 Q 512.19 132.5 508.455 127.41499999999999 Q 504.72 122.33 504.72 112.25 L 504.72 84.71 L 510.84000000000003 84.71 L 510.84000000000003 111.16999999999999 Q 510.84000000000003 127.1 521.73 127.1 Q 524.4300000000001 127.1 527.04 126.19999999999999 Q 529.65 125.3 531.855 123.58999999999999 Q 534.06 121.88 535.815 119.53999999999999 Q 537.5699999999999 117.19999999999999 538.65 114.22999999999999 L 538.65 84.71 L 544.77 84.71 L 544.77 123.67999999999999 Q 544.77 126.19999999999999 546.9300000000001 126.19999999999999 L 546.9300000000001 131.6 Q 545.85 131.78 545.175 131.78 Q 544.5 131.78 544.23 131.78 Q 542.0699999999999 131.69 540.72 130.25 Q 539.37 128.81 539.37 126.38 L 539.37 120.97999999999999 Q 536.31 126.47 531.045 129.485 Q 525.78 132.5 519.84 132.5 Z  M 581.5799999999999 132.5 Q 576 132.5 571.365 129.70999999999998 Q 566.73 126.91999999999999 564.12 122.50999999999999 L 564.12 131.6 L 558.63 131.6 L 558.63 65.89999999999999 L 564.75 65.89999999999999 L 564.75 94.52 Q 567.9 89.75 572.31 86.82499999999999 Q 576.72 83.9 582.5699999999999 83.9 Q 587.52 83.9 591.435 85.97 Q 595.35 88.03999999999999 598.095 91.505 Q 600.84 94.97 602.325 99.335 Q 603.81 103.69999999999999 603.81 108.28999999999999 Q 603.81 113.24 602.1 117.64999999999999 Q 600.39 122.06 597.42 125.345 Q 594.45 128.63 590.355 130.565 Q 586.26 132.5 581.5799999999999 132.5 Z  M 580.14 127.1 Q 584.01 127.1 587.2049999999999 125.52499999999999 Q 590.4 123.94999999999999 592.6949999999999 121.29499999999999 Q 594.99 118.64 596.295 115.26499999999999 Q 597.6 111.88999999999999 597.6 108.28999999999999 Q 597.6 104.6 596.385 101.17999999999999 Q 595.17 97.75999999999999 592.965 95.10499999999999 Q 590.76 92.44999999999999 587.655 90.875 Q 584.55 89.3 580.86 89.3 Q 578.0699999999999 89.3 575.64 90.245 Q 573.21 91.19 571.14 92.81 Q 569.0699999999999 94.42999999999999 567.45 96.54499999999999 Q 565.8299999999999 98.66 564.75 101 L 564.75 115.58 Q 565.11 118.00999999999999 566.685 120.125 Q 568.26 122.24 570.465 123.77 Q 572.67 125.3 575.235 126.19999999999999 Q 577.8 127.1 580.14 127.1 Z " fill-rule="evenodd" fill="rgb(153,153,153)" stroke-width="4" stroke="rgb(153,153,153)" stroke-linejoin="miter" stroke-linecap="square"/></svg>