<?xml version="1.0" standalone="no"?><!-- Generator: Gravit.io --><svg xmlns="http://www.w3.org/2000/svg" xmlns:xlink="http://www.w3.org/1999/xlink" style="isolation:isolate" width="775" height="70"><path d=" M 50.6 2.8999999999999986 Q 52.22 2.8999999999999986 53.345 4.024999999999999 Q 54.47 5.149999999999999 54.47 6.770000000000003 Q 54.47 8.39 53.345 9.469999999999999 Q 52.22 10.550000000000004 50.6 10.550000000000004 L 32.330000000000005 10.550000000000004 L 32.330000000000005 62.120000000000005 Q 32.330000000000005 63.83 31.115000000000002 65 Q 29.9 66.17 28.189999999999998 66.17 Q 26.479999999999997 66.17 25.310000000000002 65 Q 24.14 63.83 24.14 62.120000000000005 L 24.14 10.550000000000004 L 5.78 10.550000000000004 Q 4.16 10.550000000000004 3.08 9.469999999999999 Q 2 8.39 2 6.770000000000003 Q 2 5.149999999999999 3.08 4.024999999999999 Q 4.16 2.8999999999999986 5.78 2.8999999999999986 L 50.6 2.8999999999999986 Z  M 110.80999999999999 2.450000000000003 Q 112.52 2.450000000000003 113.73499999999999 3.664999999999999 Q 114.94999999999999 4.880000000000003 114.94999999999999 6.590000000000003 L 114.94999999999999 62.120000000000005 Q 114.94999999999999 63.83 113.73499999999999 65 Q 112.52 66.17 110.80999999999999 66.17 Q 109.09999999999998 66.17 107.92999999999999 65 Q 106.75999999999999 63.83 106.75999999999999 62.120000000000005 L 106.75999999999999 38.18 L 72.64999999999999 38.18 L 72.64999999999999 62.120000000000005 Q 72.64999999999999 63.83 71.43499999999999 65 Q 70.21999999999998 66.17 68.50999999999999 66.17 Q 66.8 66.17 65.63 65 Q 64.46 63.83 64.46 62.120000000000005 L 64.46 6.590000000000003 Q 64.46 4.880000000000003 65.63 3.664999999999999 Q 66.8 2.450000000000003 68.50999999999999 2.450000000000003 Q 70.21999999999998 2.450000000000003 71.43499999999999 3.664999999999999 Q 72.64999999999999 4.880000000000003 72.64999999999999 6.590000000000003 L 72.64999999999999 30.53 L 106.75999999999999 30.53 L 106.75999999999999 6.590000000000003 Q 106.75999999999999 4.880000000000003 107.92999999999999 3.664999999999999 Q 109.09999999999998 2.450000000000003 110.80999999999999 2.450000000000003 Z  M 160.22 2 Q 174.44 2 183.08 11.090000000000003 Q 191.45000000000002 20 191.81 34.31 Q 191.45000000000002 48.620000000000005 183.08 57.53 Q 174.44 66.62 160.22 66.62 Q 145.91 66.62 137.36 57.53 Q 128.81 48.53 128.63 34.31 Q 128.81 20.090000000000003 137.36 11.090000000000003 Q 145.91 2 160.22 2 Z  M 160.22 58.97 Q 171.20000000000002 58.97 177.5 51.86 Q 183.62 45.019999999999996 183.62 34.31 Q 183.62 23.6 177.5 16.759999999999998 Q 171.20000000000002 9.649999999999999 160.22 9.649999999999999 Q 149.24 9.649999999999999 142.94 16.759999999999998 Q 136.82 23.6 136.82 34.31 Q 136.82 45.019999999999996 142.94 51.86 Q 149.24 58.97 160.22 58.97 Z  M 269.03 2.450000000000003 Q 271.4599999999999 2.450000000000003 273.16999999999996 4.204999999999998 Q 274.87999999999994 5.960000000000001 274.87999999999994 8.39 L 274.87999999999994 62.120000000000005 Q 274.87999999999994 63.83 273.7099999999999 65 Q 272.53999999999996 66.17 270.8299999999999 66.17 Q 269.11999999999995 66.17 267.905 65 Q 266.68999999999994 63.83 266.68999999999994 62.120000000000005 L 266.68999999999994 11 L 245.89999999999998 62.39 Q 245.17999999999998 64.1 243.64999999999998 65.135 Q 242.11999999999998 66.17 240.14 66.17 Q 238.16 66.17 236.63 65.135 Q 235.1 64.1 234.38 62.39 L 213.58999999999997 11 L 213.58999999999997 62.120000000000005 Q 213.58999999999997 63.83 212.375 65 Q 211.16 66.17 209.45 66.17 Q 207.73999999999998 66.17 206.57 65 Q 205.39999999999998 63.83 205.39999999999998 62.120000000000005 L 205.39999999999998 8.39 Q 205.39999999999998 5.960000000000001 207.10999999999999 4.204999999999998 Q 208.82 2.450000000000003 211.25 2.450000000000003 L 214.22 2.450000000000003 Q 216.01999999999998 2.450000000000003 217.505 3.530000000000001 Q 218.98999999999998 4.609999999999999 219.70999999999998 6.230000000000004 L 240.14 57.17 L 260.56999999999994 6.230000000000004 Q 261.28999999999996 4.609999999999999 262.775 3.530000000000001 Q 264.26 2.450000000000003 266.05999999999995 2.450000000000003 L 269.03 2.450000000000003 Z  M 343.64 60.31999999999999 Q 344.09 61.39999999999999 344.09 62.614999999999995 Q 344.09 63.83 343.00999999999993 65 Q 341.92999999999995 66.17 339.59 66.17 Q 337.24999999999994 66.17 336.16999999999996 63.650000000000006 L 330.31999999999994 49.61 L 299.71999999999997 49.61 L 293.86999999999995 63.650000000000006 Q 292.78999999999996 66.17 290.44999999999993 66.17 Q 288.10999999999996 66.17 287.03 65 Q 285.94999999999993 63.83 285.94999999999993 62.614999999999995 Q 285.94999999999993 61.39999999999999 286.4 60.31999999999999 L 309.34999999999997 6.140000000000001 Q 310.96999999999997 2.450000000000003 314.56999999999994 2.450000000000003 L 315.46999999999997 2.450000000000003 Q 319.06999999999994 2.450000000000003 320.68999999999994 6.140000000000001 L 343.64 60.31999999999999 Z  M 327.16999999999996 42.14 L 315.02 12.89 L 302.86999999999995 42.14 L 327.16999999999996 42.14 Z  M 374.05999999999995 58.879999999999995 Q 389.80999999999995 58.879999999999995 389.80999999999995 48.53 Q 389.80999999999995 44.21 383.78 41.6 Q 381.16999999999996 40.519999999999996 377.705 39.665 Q 374.23999999999995 38.81 370.68499999999995 37.82 Q 367.13 36.83 363.66499999999996 35.57 Q 360.2 34.31 357.5 32.33 Q 351.56 27.83 351.56 20.450000000000003 Q 351.56 12.530000000000001 357.5 7.490000000000002 Q 363.97999999999996 2 374.86999999999995 2 Q 384.67999999999995 2 392.78 4.969999999999999 Q 395.29999999999995 5.8700000000000045 395.29999999999995 8.57 Q 395.29999999999995 9.920000000000002 394.35499999999996 11.134999999999998 Q 393.40999999999997 12.350000000000001 392.28499999999997 12.350000000000001 Q 391.15999999999997 12.350000000000001 389.17999999999995 11.630000000000003 Q 383.33 9.560000000000002 375.77 9.560000000000002 Q 368.84 9.560000000000002 364.34 12.170000000000002 Q 359.75 14.869999999999997 359.75 19.82 Q 359.75 24.950000000000003 365.69 27.560000000000002 Q 368.39 28.82 371.80999999999995 29.630000000000003 Q 375.22999999999996 30.439999999999998 378.83 31.340000000000003 Q 382.42999999999995 32.24 385.84999999999997 33.455 Q 389.27 34.67 391.96999999999997 36.65 Q 397.90999999999997 40.97 397.90999999999997 49.07000000000001 Q 397.90999999999997 56.81 391.7 61.67 Q 385.30999999999995 66.62 374.86999999999995 66.62 Q 363.44 66.62 353.45 62.3 Q 352.46 61.849999999999994 351.695 60.86 Q 350.92999999999995 59.870000000000005 350.92999999999995 58.474999999999994 Q 350.92999999999995 57.08 351.91999999999996 55.955 Q 352.90999999999997 54.83 354.215 54.83 Q 355.52 54.83 357.455 55.685 Q 359.39 56.540000000000006 363.79999999999995 57.709999999999994 Q 368.21 58.879999999999995 374.05999999999995 58.879999999999995 Z " fill-rule="evenodd" fill="rgb(0,189,173)" stroke-width="4" stroke="rgb(0,189,173)" stroke-linejoin="miter" stroke-linecap="square"/><path d=" M 453.69 2.450000000000003 Q 455.4 2.450000000000003 456.615 3.664999999999999 Q 457.83 4.880000000000003 457.83 6.590000000000003 L 457.83 45.019999999999996 Q 457.83 56.81 451.98 62.3 Q 447.3 66.62 439.28999999999996 66.62 Q 432.71999999999997 66.62 427.32 63.56 Q 425.34 62.480000000000004 425.34 60.635000000000005 Q 425.34 58.790000000000006 426.28499999999997 57.665000000000006 Q 427.23 56.540000000000006 428.445 56.540000000000006 Q 429.65999999999997 56.540000000000006 430.92 57.17 Q 434.34 58.879999999999995 437.53499999999997 58.879999999999995 Q 440.73 58.879999999999995 442.71 58.385000000000005 Q 444.69 57.89 446.21999999999997 56.45 Q 449.64 53.209999999999994 449.64 45.56 L 449.64 6.590000000000003 Q 449.64 4.880000000000003 450.81 3.664999999999999 Q 451.98 2.450000000000003 453.69 2.450000000000003 Z  M 502.74 2 Q 516.96 2 525.6 11.090000000000003 Q 533.97 20 534.3299999999999 34.31 Q 533.97 48.620000000000005 525.6 57.53 Q 516.96 66.62 502.74 66.62 Q 488.43 66.62 479.88 57.53 Q 471.33 48.53 471.15 34.31 Q 471.33 20.090000000000003 479.88 11.090000000000003 Q 488.43 2 502.74 2 Z  M 502.74 58.97 Q 513.72 58.97 520.02 51.86 Q 526.14 45.019999999999996 526.14 34.31 Q 526.14 23.6 520.02 16.759999999999998 Q 513.72 9.649999999999999 502.74 9.649999999999999 Q 491.76 9.649999999999999 485.46 16.759999999999998 Q 479.34 23.6 479.34 34.31 Q 479.34 45.019999999999996 485.46 51.86 Q 491.76 58.97 502.74 58.97 Z  M 566.91 58.879999999999995 Q 582.66 58.879999999999995 582.66 48.53 Q 582.66 44.21 576.63 41.6 Q 574.02 40.519999999999996 570.555 39.665 Q 567.0899999999999 38.81 563.535 37.82 Q 559.98 36.83 556.515 35.57 Q 553.05 34.31 550.35 32.33 Q 544.41 27.83 544.41 20.450000000000003 Q 544.41 12.530000000000001 550.35 7.490000000000002 Q 556.8299999999999 2 567.72 2 Q 577.53 2 585.63 4.969999999999999 Q 588.15 5.8700000000000045 588.15 8.57 Q 588.15 9.920000000000002 587.2049999999999 11.134999999999998 Q 586.26 12.350000000000001 585.135 12.350000000000001 Q 584.01 12.350000000000001 582.03 11.630000000000003 Q 576.18 9.560000000000002 568.62 9.560000000000002 Q 561.69 9.560000000000002 557.19 12.170000000000002 Q 552.6 14.869999999999997 552.6 19.82 Q 552.6 24.950000000000003 558.54 27.560000000000002 Q 561.24 28.82 564.66 29.630000000000003 Q 568.0799999999999 30.439999999999998 571.68 31.340000000000003 Q 575.28 32.24 578.7 33.455 Q 582.12 34.67 584.8199999999999 36.65 Q 590.76 40.97 590.76 49.07000000000001 Q 590.76 56.81 584.55 61.67 Q 578.16 66.62 567.72 66.62 Q 556.29 66.62 546.3 62.3 Q 545.31 61.849999999999994 544.545 60.86 Q 543.78 59.870000000000005 543.78 58.474999999999994 Q 543.78 57.08 544.77 55.955 Q 545.76 54.83 547.0649999999999 54.83 Q 548.37 54.83 550.305 55.685 Q 552.24 56.540000000000006 556.65 57.709999999999994 Q 561.06 58.879999999999995 566.91 58.879999999999995 Z  M 643.5 58.06999999999999 Q 645.12 58.06999999999999 646.245 59.19499999999999 Q 647.37 60.31999999999999 647.37 61.94 Q 647.37 63.56 646.245 64.64 Q 645.12 65.72 643.5 65.72 L 607.41 65.72 Q 605.7 65.72 604.53 64.55 Q 603.36 63.379999999999995 603.36 61.67 L 603.36 7.039999999999999 Q 603.36 5.329999999999998 604.53 4.115000000000002 Q 605.7 2.8999999999999986 607.41 2.8999999999999986 L 643.5 2.8999999999999986 Q 645.12 2.8999999999999986 646.245 4.024999999999999 Q 647.37 5.149999999999999 647.37 6.770000000000003 Q 647.37 8.39 646.245 9.469999999999999 Q 645.12 10.550000000000004 643.5 10.550000000000004 L 611.55 10.550000000000004 L 611.55 30.439999999999998 L 640.26 30.439999999999998 Q 641.88 30.439999999999998 643.005 31.564999999999998 Q 644.13 32.69 644.13 34.31 Q 644.13 35.93 643.005 37.010000000000005 Q 641.88 38.09 640.26 38.09 L 611.55 38.09 L 611.55 58.06999999999999 L 643.5 58.06999999999999 Z  M 685.3499999999999 2.8999999999999986 Q 697.8599999999999 2.8999999999999986 704.16 9.380000000000003 Q 709.38 14.600000000000001 709.38 22.880000000000003 Q 709.38 31.159999999999997 704.16 36.379999999999995 Q 697.8599999999999 42.86 685.3499999999999 42.86 L 668.97 42.86 L 668.97 62.120000000000005 Q 668.97 63.83 667.755 65 Q 666.54 66.17 664.8299999999999 66.17 Q 663.12 66.17 661.95 65 Q 660.78 63.83 660.78 62.120000000000005 L 660.78 7.039999999999999 Q 660.78 5.329999999999998 661.95 4.115000000000002 Q 663.12 2.8999999999999986 664.8299999999999 2.8999999999999986 L 685.3499999999999 2.8999999999999986 Z  M 684.54 35.120000000000005 Q 693.81 35.120000000000005 697.95 31.159999999999997 Q 701.19 28.1 701.19 22.880000000000003 Q 701.19 14.509999999999998 692.8199999999999 11.719999999999999 Q 689.5799999999999 10.64 684.54 10.64 L 668.97 10.64 L 668.97 35.120000000000005 L 684.54 35.120000000000005 Z  M 767.3399999999999 2.450000000000003 Q 769.05 2.450000000000003 770.265 3.664999999999999 Q 771.48 4.880000000000003 771.48 6.590000000000003 L 771.48 62.120000000000005 Q 771.48 63.83 770.265 65 Q 769.05 66.17 767.3399999999999 66.17 Q 765.63 66.17 764.46 65 Q 763.29 63.83 763.29 62.120000000000005 L 763.29 38.18 L 729.1800000000001 38.18 L 729.1800000000001 62.120000000000005 Q 729.1800000000001 63.83 727.9649999999999 65 Q 726.75 66.17 725.04 66.17 Q 723.3299999999999 66.17 722.16 65 Q 720.99 63.83 720.99 62.120000000000005 L 720.99 6.590000000000003 Q 720.99 4.880000000000003 722.16 3.664999999999999 Q 723.3299999999999 2.450000000000003 725.04 2.450000000000003 Q 726.75 2.450000000000003 727.9649999999999 3.664999999999999 Q 729.1800000000001 4.880000000000003 729.1800000000001 6.590000000000003 L 729.1800000000001 30.53 L 763.29 30.53 L 763.29 6.590000000000003 Q 763.29 4.880000000000003 764.46 3.664999999999999 Q 765.63 2.450000000000003 767.3399999999999 2.450000000000003 Z " fill-rule="evenodd" fill="rgb(0,189,173)" stroke-width="0" stroke="rgb(0,189,173)" stroke-opacity="0" stroke-linejoin="miter" stroke-linecap="square"/></svg>